<?xml version="1.0" encoding="UTF-8"?>
<svg viewBox="0 0 18.861 18.861" xmlns="http://www.w3.org/2000/svg">
<defs>
<linearGradient id="a" x1="250" x2="250" y1="142.86" y2="357.14" gradientTransform="matrix(.088018 0 0 .088018 -12.574 -12.574)" gradientUnits="userSpaceOnUse">
<stop stop-color="rgb(40% 80% 80%)" offset="0"/>
<stop stop-color="rgb(0% 47.889% 48.273%)" offset="1"/>
</linearGradient>
</defs>
<path d="m18.861 9.43c0 5.209-4.222 9.431-9.431 9.431-5.208 0-9.43-4.222-9.43-9.431 0-5.208 4.222-9.43 9.43-9.43 5.209 0 9.431 4.222 9.431 9.43z" fill="url(#a)" stroke-width="5px"/>
<path d="m5.738 13.855h0.06l0.101 0.161-0.161 0.02-0.02 0.161h-0.041l0.121 0.14-0.098-0.113 0.078 0.173-0.04 0.02 0.04 0.101 0.281 0.221c0.241 0.2 0.923 0.442 1.244 0.442l0.442 0.079h0.201l0.481-0.06-0.02-0.06 0.161-0.1c0.16 0.321 0.521 0.381 0.843 0.461l0.261-0.1-0.081-0.02c1.063-0.321 2.167-0.583 3.211-0.964h-0.08l0.181-0.1-0.261 0.061 0.08-0.061h-0.08l0.02-0.02-0.101 0.02 0.081-0.04-0.322 0.06c0.02-0.02 0.041-0.02 0.041-0.02v-0.02h-0.101l0.181-0.08-0.281 0.041c0.18-0.061 0.361-0.061 0.541-0.122l0.041 0.02 0.22-0.079 0.041 0.019s0.201-0.099 0.16-0.099c-0.08 0-0.08-0.181-0.16-0.181l-0.021-0.061h0.121l-0.02-0.08 0.08 0.04 0.021-0.04-0.161-0.14 0.02-0.041-0.241-0.16-0.101-0.04 0.121-0.14-0.121-0.322-0.2-0.161-0.06 0.041c-0.221-0.061-0.442-0.081-0.663-0.1l-0.1-0.021h-1.144l0.101-0.04c-0.301 0.02-0.682 0.1-0.682 0.1-0.322 0.101-0.663 0.02-0.984 0.101l0.02-0.401s0.061-0.763 0.1-1.144v0.14l-0.02-1.084c-0.019-0.24-0.04-0.501-0.04-0.762 0-0.763 0.081-1.546 0.081-2.308 0-1.004 0-2.408-0.442-3.331l0.04 0.06-0.201-0.502-0.02 0.12-0.16 0.121-0.101-0.121 0.101-0.12-0.161-0.06-0.077 0.033-0.063 0.047-0.01-0.033-0.051 0.013v-0.06l-0.12 0.04-0.261 0.422c-0.1 0.601-0.461 1.123-0.642 1.705l0.02 0.04c-0.06 0.642-0.22 1.284-0.22 1.927l0.08-0.02 0.08 0.261c-0.382 0.3-0.582 0.803-0.582 1.265 0 0.159 0.1 0.32 0.1 0.32 0.121 1.304 0.202 2.609 0.402 3.893-0.402 0.161-0.763 0.342-1.084 0.642zm6.422 0.403h0.02l-0.161 0.059 0.141-0.059zm-3.452-10.336 0.041 0.1-0.021-0.02-0.02-0.08z" fill="#f2f2f2" stroke-linejoin="round" style="paint-order:fill;text-wrap-mode:nowrap"/>
</svg>