<svg xmlns="http://www.w3.org/2000/svg" xml:space="preserve" id="svg10" version="1.1" viewBox="0 0 300 300">
    <defs>
        <filter id="inner-shadow" width="1.05" height="1.05" x="-.02" y="-.02" color-interpolation-filters="sRGB">
            <feFlood flood-color="#000" flood-opacity=".5" result="flood" />
            <feGaussianBlur in="SourceGraphic" result="blur" stdDeviation="2.95" />
            <feOffset in="blur" result="offset" />
            <feComposite in="flood" in2="offset" operator="out" result="comp1" />
            <feComposite in="comp1" in2="SourceGraphic" operator="atop" result="comp2" />
        </filter>
        <filter id="text-shadow" width="1" height="1" x="0" y="0" color-interpolation-filters="sRGB">
            <feFlood flood-color="#000" flood-opacity=".5" result="flood" />
            <feGaussianBlur in="SourceGraphic" result="blur" />
            <feOffset dx="1" dy="1" in="blur" result="offset" />
            <feComposite in="flood" in2="offset" operator="in" result="comp1" />
            <feComposite in="SourceGraphic" in2="comp1" result="comp2" />
        </filter>
        <linearGradient id="background" x2="300" y1="150" y2="150" gradientTransform="translate(0 -300)"
            gradientUnits="userSpaceOnUse">
            <stop offset="0" stop-color="#5cd4d4" />
            <stop offset="1" stop-color="#296969" stop-opacity=".99" />
        </linearGradient>
    </defs>
    <circle cx="150" cy="-150" r="150" fill="url(#background)" filter="url(#inner-shadow)" transform="rotate(90)" />
    <path fill="#fff" fill-opacity=".17"
        d="M154.91 138.35c17.5-6.3 36.42-16.83 54.75-32.58l4-5.07a82.01 82.01 0 0 0-31.71-17.98l5.24-21.93c4.5.57 9.22-.06 13.63-2.12a24.9 24.9 0 0 0 12-33.06 24.9 24.9 0 0 0-33.06-12 24.9 24.9 0 0 0-12 33.06 24.8 24.8 0 0 0 12.62 12.24l-5.27 22.04-.82-.2-.18 3.1c-2.59 19.73-7.04 40.48-19.2 54.5zM189 24.98a3.55 3.55 0 0 1 3.01 6.44 7.11 7.11 0 0 0-3.43 9.44 3.55 3.55 0 0 1-6.43 3.01A14.22 14.22 0 0 1 189 24.98zm25.8 168.87c-57.13 26.7-95.17 31.45-121.67 15.58l-.64-.3a81.27 81.27 0 0 0 24.58 22.1l-.02.04-19.18 49.16a3.55 3.55 0 1 0 6.62 2.58l18.9-48.43A81.5 81.5 0 0 0 237 182.93l-1.33.62a592.77 592.77 0 0 1-20.89 10.3zM52.78 127.88c4.23-1.98 7.61-5 10.04-8.61l21.3 7.72-.2.4 3.64 7.76c1.88 4.03 6.94 7.18 14.25 8.97 16.65-8.33 25.64-25.88 29.93-58.39l.11-2.15a81.14 81.14 0 0 0-44.48 37.03l-21.44-7.78a24.76 24.76 0 0 0-1.15-18.01 24.9 24.9 0 0 0-33.06-12 24.9 24.9 0 0 0-12 33.06 24.91 24.91 0 0 0 33.07 12zM40.96 94.19a3.55 3.55 0 0 1 3 6.44 7.11 7.11 0 0 0-3.42 9.44 3.55 3.55 0 0 1-6.44 3.01 14.22 14.22 0 0 1 6.86-18.89zm71.77 51.47c7.1.36 15.16-.28 23.85-2.06 21.14-10 27.27-36.14 30.46-60.42l.2-3.53a81.14 81.14 0 0 0-28.17 1.82l-.26 4.92c-2.92 22.2-8.42 45.8-26.08 59.27zm-35.75 8.8L85 171.64c1.56 3.34 6.77 6.18 14.28 7.77 43.89 9.29 101.63-19.54 128.73-43.06l6-6.4a81.5 81.5 0 0 0-15.34-24.24l-4.13 5.22a189.87 189.87 0 0 1-43.4 28.37c-27.02 12.64-52.29 15.78-69.51 12.1-10.27-2.2-17.56-6.9-20.52-13.24l-.72-1.53a82.22 82.22 0 0 0-3.43 17.83zm162.48 16.2a81.14 81.14 0 0 0-2.77-33.18l-3.87 4.12a193.4 193.4 0 0 1-44.94 29.06c-33.53 15.68-67.82 20.4-90.06 15.7-10-2.12-16.66-6.17-19.25-11.72l-1.06-2.27a81.36 81.36 0 0 0 8.3 25.94l10.81 4.93c27.25 16.45 69.18 8.4 135.92-26.06l1.93-.9 52.23 21.55a3.56 3.56 0 1 0 2.27-6.74z"
        style="mix-blend-mode:normal" />
    <path fill="#fff" stroke-linecap="round" stroke-linejoin="bevel" stroke-width="18.9"
        d="M91.13 166.18c-.07.25-.07.45 0 .58.13.07.22.16.28.28.13.07.23.17.3.3.12.06.15.22.09.47-.39.26-.64.68-.77 1.25-.07.57.06 1.15.38 1.73l-.57.38c-.13.13-.3.23-.48.29.13.9.1 1.66-.1 2.3-.13.64-.2 1.5-.2 2.6-.06 0-.12.03-.18.1-.13.12-.13.18 0 .18.32.2.45.49.38.87s-.16.83-.29 1.34c.2.26.36.33.48.2s.25-.2.39-.2c.25 0 .51.03.77.1.25 0 .48-.03.67-.1.32-.13.64-.29.96-.48l.77-.48a5.66 5.66 0 0 0 3.07 0c.13 0 .22-.03.29-.1.07-.13.16-.19.28-.19.07 0 .1.07.1.2s.07.17.2.1c.06 0 .06-.03 0-.1 0-.13.06-.2.18-.2s.22-.03.3-.1c.08-.07.2-.13.37-.18a4.23 4.23 0 0 1 1.83 0c.57.07 1.18.16 1.82.28.07 0 .1.07.1.2 0 .07.07.1.2.1h.47c.25-.07.48-.07.67 0 .07.06.1.12.1.18s.07.1.2.1.32.1.57.29a1.75 1.75 0 0 1 .87.77c.07.13.17.2.28.19.32 0 .64.26.96.77l.96 1.15c.2.2.38.35.57.48.26.13.49.38.68.77.13.25.22.54.28.86 0 .07.07.26.2.58.19.25.15.57-.1.96-.2.38-.74.8-1.63 1.24-.13.13-.3.2-.48.2-.13-.07-.33-.03-.58.1-.07.06-.1.12-.1.18s-.06.1-.19.1h-.19c-.25.13-.54.2-.86.2-.32-.07-.7 0-1.15.18-.32.13-.64.3-.96.48-.32.19-.67.35-1.06.48-.32.13-.67.2-1.06.2a1.85 1.85 0 0 0-1.05.1c-.13 0-.33.03-.58.09-.25 0-.44.06-.57.19-.07 0-.17.1-.3.29-.12.13-.21.25-.28.38a5.5 5.5 0 0 1-.77-.1c-.38-.07-.6-.03-.67.1-.07.07-.32.23-.77.48a3 3 0 0 1-1.15.29c.13 0 .13-.07 0-.2s-.23-.16-.29-.09c-.13.2-.25.35-.38.48s-.38.06-.77-.19c-.25.07-.35.26-.29.58.07.25-.06.38-.38.38a.95.95 0 0 0-.58.38.69.69 0 0 1-.57.3c-.32.06-.64.22-.96.47-.26.2-.58.45-.96.77-.13.13-.33.17-.58.1-.25 0-.44.06-.57.19-.13.13-.2.22-.2.29 0 .13-.1.22-.28.28-1.53.26-3-.25-4.42-1.53a1.19 1.19 0 0 0-.67-.77c-.26-.2-.52-.35-.77-.48 0-.2-.03-.42-.1-.67 0-.32.1-.51.3-.58a3.4 3.4 0 0 1-.49-.67c-.2-.32-.45-.48-.77-.48-.25-.07-.35-.2-.28-.38.07-.26.16-.33.28-.2-.19-.19-.35-.25-.48-.19-.07 0-.23-.06-.48-.19-.07-.07-.1-.13-.1-.2s-.06-.1-.18-.09a.4.4 0 0 1-.3-.1c0-.13-.06-.19-.18-.19-.13-.38-.26-.7-.39-.96l-.38-.96c-.07-.25-.26-.35-.58-.28a.63.63 0 0 1-.57-.3c-.13-.5-.1-.86.1-1.05.12-.2.21-.45.28-.77-.32-.32-.48-.83-.48-1.53 0-.77.07-1.5.2-2.21.06-.25.09-.48.09-.67-.07-.26.1-.36.48-.29-.13-.13-.3-.23-.48-.29-.13-.07-.2-.26-.2-.57.26.07.36-.06.3-.39 0-.38-.03-.76-.1-1.15-.07-.39-.1-.67-.1-.86-.07-.26.03-.26.29 0h.38c0-.26-.1-.45-.28-.58-.19-.13-.35-.38-.48-.77 0-.07.03-.13.1-.19.12-.13.18-.26.18-.38-.07 0-.13-.03-.19-.1-.07 0-.1-.07-.1-.2 0-.06.03-.25.1-.57 0-.32.03-.54.1-.67 0-.45.16-.86.48-1.25.13-.51.1-.83-.1-.96a1.5 1.5 0 0 1-.38-.86c.25-.26.54-.36.86-.29-.2-.51-.2-.93 0-1.25.2-.32.32-.64.39-.96.07-.25.1-.48.1-.67 0-.2.03-.39.09-.58.2-.38.29-.7.29-.96.07-.32 0-.51-.2-.57-.13-.13-.19-.36-.19-.67a.66.66 0 0 1 .2-.68c.19-.25.28-.5.28-.76 0-.13-.07-.23-.2-.3-.12-.12-.18-.12-.18 0 .2-.57.42-1.02.67-1.34.25-.32.45-.7.58-1.15 0-.38-.03-.76-.1-1.15V156l.38-.19c.12-.06.28-.1.48-.1a2.4 2.4 0 0 1 0-1.34c.13-.45.23-.93.3-1.44.12-.38.15-.83.09-1.34 0-.58.22-.96.67-1.15a4.3 4.3 0 0 1-.1-.87c0-.32-.03-.64-.1-.96.27 0 .43-.1.49-.29.13-.25.22-.48.29-.67l.19-.67c.13-.2.35-.26.67-.2-.25-.44-.35-.82-.29-1.14l.39-1.16.38-1.15c.13-.45.1-.96-.1-1.53.32.07.51.07.58 0a.67.67 0 0 1 .29-.3c-.13-.7-.07-1.18.19-1.43.32-.32.42-.86.29-1.63-.13-.58-.04-.93.28-1.06s.51-.38.58-.77v-1.05c0-.39-.03-.77-.1-1.16.39-.13.52-.32.39-.57-.07-.26-.03-.55.1-.87.07-.13.16-.19.28-.19.12 0 .22-.06.3-.19a.7.7 0 0 0-.1-.29V132c.13-.13.28-.16.47-.1.2 0 .33-.06.39-.18.07-.07 0-.17-.2-.3-.13-.19-.19-.31-.19-.38 0 .07.07.07.2 0 .19-.13.25-.22.19-.28h-.39c0-.07.03-.2.1-.39a3 3 0 0 1 .2-.57l.28-.3c.13-.13.2-.23.2-.28.12-.32.15-.64.09-.96a1.7 1.7 0 0 1 .1-.96c0-.07.03-.07.1 0 .06 0 .09-.1.09-.29 0-.13.1-.32.28-.57.19-.25.35-.45.48-.58-.19-.57-.19-.99 0-1.25.2-.32.33-.64.39-.96.06-.32.1-.54.1-.67a1 1 0 0 1 .19-.58l.28-.28c.2-.32.33-.7.39-1.16l.38-1.44c.13-.5.3-.95.48-1.34.26-.45.58-.77.96-.96.39-.13.77-.04 1.15.29.45.32.87.64 1.25.96l.39.38c.13.07.25.26.38.58.2.13.32.25.38.38l.39.39c.2.5.38.83.57.96.13.13.23.29.3.48.12.19.25.35.38.48 0 .13.1.38.28.76.07.26.17.52.3.77-.33.26-.33.52 0 .77s.42.73.28 1.44l-.29.29c-.07.07-.1.07-.1 0 0 .13.07.29.2.48.2.2.29.42.29.67 0 .32-.03.54-.1.67s-.1.32-.1.58c-.13.45-.16.8-.1 1.05s0 .54-.18.87l-.2.38c-.07.13-.16.3-.28.48-.07.32-.03.61.1.87.19.19.28.44.28.76 0-.07-.03-.07-.1 0s-.1.17-.1.3v.28c-.06.2-.09.45-.09.77.07.25.03.6-.1 1.05 0 .07-.03.1-.09.1s-.1.07-.1.2v.28c-.07.2-.2.39-.38.58-.13.13-.2.25-.2.38.07.2.13.35.2.48.13.07.1.23-.1.48-.07 0-.16.07-.28.2a.3.3 0 0 1-.2.09c-.13.45-.19.93-.19 1.44.07.51.1.96.1 1.34 0-.07-.1-.03-.29.1-.13.07-.13.13 0 .19.2.13.26.3.2.48-.06.19 0 .54.18 1.06-.45 0-.7.19-.76.57 0 .32-.1.54-.3.67.07.58.1 1.16.1 1.73 0 .57.03 1.15.1 1.73-.2.13-.32.42-.38.86 0 .39-.23.58-.68.58-.07.77-.1 1.53-.1 2.3.07.7.04 1.41-.09 2.12 0 .07-.06.1-.19.1-.07 0-.1.06-.1.18 0 .2-.03.62-.1 1.25s-.16 1.02-.28 1.15c0 .07-.03.23-.1.48 0 .26-.06.42-.19.48-.13.13-.16.33-.1.58.13.25.1.48-.09.67h-.2c-.06.26-.09.64-.09 1.15.07.45-.16.68-.67.68.13.57.13 1.08 0 1.53-.07.39-.16.74-.29 1.06-.07.32-.13.67-.19 1.05 0 .32.1.74.29 1.25-.2.07-.29-.03-.29-.29-.2.07-.23.17-.1.3.13.13.16.35.1.66-.45-.13-.67-.06-.67.2 0 .19-.13.31-.39.38zm-.39-26.5c.07-.07.2 0 .39.2.19.13.12.06-.2-.2-.07 0-.03-.06.1-.19.07 0 .13-.03.2-.1.12-.31.12-.54 0-.67-.07-.19 0-.28.18-.28.32 0 .39-.07.2-.2s-.25-.26-.2-.38c.07 0 .17-.03.3-.1.19-.19.28-.25.28-.19a2 2 0 0 0 .1-.67c0-.32-.07-.51-.2-.58.07.2-.03.36-.28.48-.26.07-.36.2-.3.39 0 .07.07.1.2.1.2 0 .26.1.2.28 0 .07-.1.07-.3 0-.19-.13-.28-.13-.28 0-.07.13-.1.36-.1.67 0 .26-.03.55-.1.87h-.29c-.13.13-.16.38-.1.77.07.32-.06.48-.38.48-.25-.58-.32-1.06-.19-1.44.2-.39.4-.74.58-1.06.19-.32.31-.6.38-.86.07-.32.17-.67.3-1.06.12-.25.24-.48.37-.67.13-.26.2-.45.2-.58.07-.2.07-.32 0-.38 0-.13.06-.26.19-.39.13-.19.2-.35.2-.48.06-.19.15-.35.28-.48.25-.45.41-.83.48-1.15.07-.32.16-.67.29-1.05 0-.07.06-.1.19-.1a.99.99 0 0 0 .29-.2c.13-.25.16-.47.1-.66 0-.2.06-.4.18-.58 0-.07.03-.13.1-.2v-.09c.07 0 .1-.03.1-.1a7 7 0 0 0 .48-.86 2.77 2.77 0 0 1 .58-.67c.06 0 .03-.07-.1-.2-.07-.12-.03-.21.1-.28.06-.13.12-.2.18-.2.13-.06.23-.12.3-.18a.44.44 0 0 0 0-.39c-.07-.2-.1-.35-.1-.48a.7.7 0 0 1 .28-.29c.2-.13.27-.25.2-.38-.39-.07-.64.06-.77.38s-.48.42-1.06.3c-.32.31-.45.57-.38.76.07.13 0 .36-.2.67-.31 0-.57.2-.76.58-.2.32-.29.54-.29.67 0 .2-.03.29-.1.29 0-.07-.03-.07-.1 0-.19.45-.38.8-.57 1.05-.13.26-.16.65-.1 1.16a5 5 0 0 0-.95 1.05c-.25.38-.35.96-.3 1.73-.44-.13-.66.03-.66.48.07.39.03.7-.1.96 0 .13-.03.17-.1.1s-.13-.1-.19-.1v.38c.07.13.1.23.1.3h-.29c-.07.06-.07.15 0 .28.07.13.1.25.1.38H89c-.07.07-.07.17 0 .3.13.12.13.21 0 .28h-.29v.29c.07.13.1.25.1.38a10 10 0 0 1-.48 1.15c-.13.32-.2.64-.2.96 0 .2-.03.3-.09.3-.07-.07-.1-.04-.1.09-.13.32-.22.6-.28.86-.06.25-.16.45-.29.58-.07.13-.1.41-.1.86v.67c0 .13-.06.2-.19.2-.07 0-.1.03-.1.1-.13.5-.22 1.02-.28 1.53a6 6 0 0 1-.2.96c-.13.45-.19.9-.19 1.34 0 .39-.06.74-.19 1.06h.68c.32 0 .48-.1.48-.29-.32 0-.55-.07-.68-.2.45-.12.68-.21.68-.28 0-.25.03-.35.1-.29s.1.06.09 0c.13-.38.16-.67.1-.86-.06-.2-.03-.45.09-.77 0-.07.1-.1.29-.1.2-.07.29-.13.29-.19.07-.13.03-.32-.1-.57-.07-.32-.07-.55 0-.68.07-.07.16-.07.29 0 .2.07.29.07.29 0a1.5 1.5 0 0 0 0-1.05c-.07-.39-.03-.77.1-1.15.06-.07.15-.1.28-.1.2 0 .29-.07.29-.2.13-.19.1-.47-.1-.86-.13-.38.06-.57.58-.57-.32.45-.39.67-.2.67.2-.07.36 0 .48.2-.13.31-.25.66-.38 1.05-.07.38-.26.64-.57.77l-.39 2.01c-.13.64-.29 1.31-.48 2.02-.07.32-.16.58-.29.77a.81.81 0 0 0-.1.38l-.28.58c0 .13-.03.25-.1.38 0 .25-.06.57-.19.96v.2c.07 0 .1.03.1.09 0 .13-.07.19-.2.19-.07 0-.1.03-.1.1-.06.5-.09.86-.09 1.05 0 .13-.03.33-.1.58v.19c.07 0 .1.03.1.1 0 .13-.06.19-.19.19-.07 0-.1.03-.1.1-.13.5-.19 1.08-.19 1.72a6.7 6.7 0 0 1-.19 1.63 46.1 46.1 0 0 0-.38 1.83 7.2 7.2 0 0 0-.2 1.63v1.15c.07.45.2.67.39.67.13-.13.17-.35.1-.67-.07-.32-.03-.6.1-.86 0-.07.06-.1.18-.1.2-.07.33-.13.39-.19.07-.32.07-.64 0-.96 0-.32.03-.64.1-.96h.28c.07-.07.1-.23.1-.48.07-.25.1-.41.1-.48.19-.25.25-.48.19-.67-.07-.26.06-.55.38-.87-.07-.07-.1-.13-.1-.19v-.29h.3c.19-.32.22-.7.09-1.15-.13-.51-.04-.77.29-.77.33 0 .45.16.38.48-.07.26.03.42.29.48l.38-.67c.19-.32.32-.32.39 0 .07.26.03.45-.1.58-.07.07-.2.16-.38.29a.68.68 0 0 0-.3.28c-.07.12-.03.38.1.77a.6.6 0 0 0 .3.29c.12 0 .21.07.28.2 0 .25-.03.38-.1.38-.07.07-.13.07-.19 0 0 .25.13.44.39.57.32.13.51.23.57.29a4.5 4.5 0 0 1-.29-1.25c.07-.25-.1-.64-.48-1.15.26-.07.39-.2.39-.38 0-.26.16-.33.48-.2-.07-.45-.2-.77-.39-.96a2.23 2.23 0 0 1-.38-.96c0-.19.07-.41.2-.67.19-.25.09-.44-.3-.57.07.45.03.73-.1.86-.12.07-.21.2-.28.38-.07.13-.1.3-.1.48 0 .13-.06.2-.19.2 0-.45-.13-.77-.38-.96a2.83 2.83 0 0 1 0-1.06c.13-.32.22-.6.29-.86.13-.32.22-.61.28-.87.07-.32 0-.6-.19-.86.45-.13.9-.3 1.35-.48.45-.19.61-.67.48-1.44-.32-.13-.51-.17-.58-.1-.07.07-.13.2-.2.39 0 .13-.03.25-.09.38 0 .13-.07.23-.2.29-.06-.32-.15-.39-.28-.2-.13.13-.23.1-.29-.09-.07-.51.22-.74.87-.67 0-.9-.03-1.57-.1-2.02a7.26 7.26 0 0 1 .1-2.01 4.38 4.38 0 0 0 .86-.3c.13-.12.2-.25.2-.38s-.13-.3-.4-.48c.13.51.04.67-.28.48a.71.71 0 0 1-.29-.76c.2.07.27 0 .2-.2 0-.25.03-.41.1-.48zm2.4-5.76a.78.78 0 0 1 .1-.67c.13-.2.23-.35.29-.48.13-.2.19-.32.19-.38.07-.13 0-.26-.2-.39 0 .2-.06.4-.19.58l-.38.38a.61.61 0 0 0-.2.48c0 .13.13.3.4.48zm-1.05 1.73c.19.07.31.03.38-.1.13-.13.23-.28.29-.47a.66.66 0 0 0 0-.48c-.06-.13-.13-.2-.2-.2-.07.26-.16.49-.28.68l-.2.57zm-3.27 22.56c.07-.13.16-.35.29-.67.13-.32 0-.51-.39-.58 0 .26-.06.36-.19.3a.89.89 0 0 1-.1-.4c0-.19-.06-.28-.19-.28.13.32.2.64.2.96.07.32.2.54.38.67zm1.54-.38c.13-.2.16-.42.1-.67a.7.7 0 0 0-.58-.58c.07.32.1.6.1.86 0 .2.13.33.38.39z"
        filter="url(#text-shadow)" transform="translate(-138.2 -326.74) scale(3.057)" />
</svg>