<svg xmlns="http://www.w3.org/2000/svg" xml:space="preserve" id="svg10" version="1.1" viewBox="0 0 300 300">
  <defs>
    <filter id="inner-shadow" width="1.0472" height="1.0472" x="-.0236" y="-.0236" color-interpolation-filters="sRGB">
      <feFlood flood-color="#000" flood-opacity=".5" result="flood"/>
      <feGaussianBlur in="SourceGraphic" result="blur" stdDeviation="2.95"/>
      <feOffset in="blur" result="offset"/>
      <feComposite in="flood" in2="offset" operator="out" result="comp1"/>
      <feComposite in="comp1" in2="SourceGraphic" operator="atop" result="comp2"/>
    </filter>
    <filter id="text-shadow" width="1" height="1" x="0" y="0" color-interpolation-filters="sRGB">
      <feFlood flood-color="#000" flood-opacity=".5" result="flood"/>
      <feGaussianBlur in="SourceGraphic" result="blur"/>
      <feOffset dx="1" dy="1" in="blur" result="offset"/>
      <feComposite in="flood" in2="offset" operator="in" result="comp1"/>
      <feComposite in="SourceGraphic" in2="comp1" result="comp2"/>
    </filter>
    <linearGradient id="background" x2="300" y1="150" y2="150" gradientTransform="translate(0 -300)" gradientUnits="userSpaceOnUse">
      <stop offset="0" stop-color="#5cd4d4"/>
      <stop offset="1" stop-color="#296969" stop-opacity=".99"/>
    </linearGradient>
  </defs>
  <circle cx="150" cy="-150" r="150" fill="url(#background)" filter="url(#inner-shadow)" transform="rotate(90)"/>
  <path fill="#ffffff" fill-opacity=".17" style="mix-blend-mode:normal" d="M154.91 138.35c17.5-6.3 36.42-16.83 54.75-32.58l4-5.07a82.01 82.01 0 0 0-31.71-17.98l5.24-21.93c4.5.57 9.22-.06 13.63-2.12 12.42-5.8 17.8-20.64 12-33.06-5.8-12.42-20.64-17.8-33.06-12a24.9 24.9 0 0 0-12 33.06 24.8 24.8 0 0 0 12.62 12.24l-5.27 22.04-.82-.2-.18 3.1c-2.59 19.73-7.04 40.48-19.2 54.5zM189 24.98a3.554353 3.554353 0 0 1 3.01 6.44 7.11 7.11 0 0 0-3.43 9.44 3.55 3.55 0 0 1-6.43 3.01A14.22 14.22 0 0 1 189 24.98zm25.8 168.87c-57.13 26.7-95.17 31.45-121.67 15.58l-.64-.3a81.27 81.27 0 0 0 24.58 22.1l-.02.04-19.18 49.16a3.5524921 3.5524921 0 1 0 6.62 2.58l18.9-48.43A81.5 81.5 0 0 0 237 182.93l-1.33.62a592.77 592.77 0 0 1-20.89 10.3zM52.78 127.88c4.23-1.98 7.61-5 10.04-8.61l21.3 7.72-.2.4 3.64 7.76c1.88 4.03 6.94 7.18 14.25 8.97 16.65-8.33 25.64-25.88 29.93-58.39l.11-2.15a81.14 81.14 0 0 0-44.48 37.03l-21.44-7.78a24.76 24.76 0 0 0-1.15-18.01c-5.8-12.42-20.64-17.8-33.06-12-12.42 5.8-17.8 20.64-12 33.06 5.8 12.42 20.64 17.8 33.07 12zM40.96 94.19a3.5522387 3.5522387 0 0 1 3 6.44 7.11 7.11 0 0 0-3.42 9.44 3.554353 3.554353 0 0 1-6.44 3.01 14.22 14.22 0 0 1 6.86-18.89zm71.77 51.47c7.1.36 15.16-.28 23.85-2.06 21.14-10 27.27-36.14 30.46-60.42l.2-3.53a81.14 81.14 0 0 0-28.17 1.82l-.26 4.92c-2.92 22.2-8.42 45.8-26.08 59.27zm-35.75 8.8L85 171.64c1.56 3.34 6.77 6.18 14.28 7.77 43.89 9.29 101.63-19.54 128.73-43.06l6-6.4a81.5 81.5 0 0 0-15.34-24.24l-4.13 5.22a189.87 189.87 0 0 1-43.4 28.37c-27.02 12.64-52.29 15.78-69.51 12.1-10.27-2.2-17.56-6.9-20.52-13.24l-.72-1.53a82.22 82.22 0 0 0-3.43 17.83zm162.48 16.2a81.14 81.14 0 0 0-2.77-33.18l-3.87 4.12a193.4 193.4 0 0 1-44.94 29.06c-33.53 15.68-67.82 20.4-90.06 15.7-10-2.12-16.66-6.17-19.25-11.72l-1.06-2.27a81.36 81.36 0 0 0 8.3 25.94l10.81 4.93c27.25 16.45 69.18 8.4 135.92-26.06l1.93-.9 52.23 21.55a3.5559985 3.5559985 0 1 0 2.27-6.74z"/>
  <path fill="#fff" filter="url(#text-shadow)" stroke-linecap="round" stroke-linejoin="bevel" stroke-width="18.9" transform="translate(-121.34 -184.96) scale(2.1542)" d="M115.07 163.09q-.09 0-.13.04h-.08q-.22 1.45-.56 2.56-.08.13-.13.34 0 .17-.08.3 0 .09-.04.09-.05-.04-.05.08-.08.26-.25.47-.13.22-.26.56-.04.04-.04.17.04.08 0 .13h-.13q-.04.04-.04.12.04.09 0 .13-.13.09-.13.17.04.09-.04.26-.05.08-.13.08t-.09.09q-.04.08-.04.17.04.04 0 .09-.04.08-.13.2-.08.14-.17.22-.13.13-.25.22-.09.04-.22.2-.04.05 0 .14.04.09-.04.12l-.51.56q-.26.34-.6.6-.04.04-.13 0-.04-.05-.08 0-.09.08-.09.25 0 .13-.08.22l-.26.2q-.13.1-.21.1-.13 0-.17.08 0 .09-.09.17-.04.04-.13 0t-.12 0q-.13.13-.3.17-.05 0-.13.09-.04.04 0 .04-.09 0-.13-.09-.04-.09-.13-.04-.04 0-.12.13l-.18.17h-.12q-.09-.04-.13 0-.09.13-.09.09 0-.09-.17-.09-.08 0-.34.09-.25.08-.6.04h-.5q-.3-.04-.52-.13-.04-.04-.04-.09.04-.08-.09-.08t-.21-.13q-.09-.13-.39-.17-.34-.04-.5-.17-.14-.17-.35-.38-.08-.05-.04-.09.04-.04-.09-.08-.21 0-.47-.22l-.38-.47q-.21.05-.3 0-.08-.08-.21-.17-.22-.08-.43-.3-.17-.21-.43-.42-.08-.05-.12-.13-.04-.08-.09-.13-.08-.08-.21-.08-.09 0-.17-.05-.09-.08-.05-.34.05-.25-.17-.25-.17 0-.17-.35-.04-.34-.12-.68-.09-.21-.09-.47-.04-.3-.26-.38-.04-.22.13-.22.13-.04.17-.2l-.34-.44q.13-.46 0-1.02-.13-.6-.04-1.28l.17-.98q.08-.34.21-.64l.17-.51q.05 0 .05-.09-.05-.08 0-.17.04-.04.12-.04.13-.04.17-.09.09-.17.05-.38 0-.26.21-.21-.08-.69.26-1.28.04-.09.08-.05.04 0 .09-.12 0-.09.08-.26.13-.17.22-.34.2-.34.38-.6.17-.3.38-.6.05-.08.05-.04.04 0 .08-.13 0-.17.13-.21.17-.04.26-.26.08-.12.08-.25.04-.13.13-.3.04-.04.13-.04.13-.05.17-.09 0-.08-.04-.17 0-.09.04-.13.13-.17.3-.3.17-.12.25-.25l.6-.6.51-.51q.3-.3.51-.64.13.04.09.13 0 .04-.09.04-.04.25.13.3-.04-.22.13-.3.17-.17.3-.26.17-.08.38-.3.05-.04 0-.12-.04-.13 0-.17.09-.09.13-.09.09 0 .17-.09l.17-.17q.09-.04.39-.08-.05 0 0 0 .08 0 .17-.04.08-.05.21-.09.26-.3.73-.26.5 0 1.02.26.55.21.98.56.43.34.56.6.2.04.38.12.17.04.26.26.2.04.17.34-.05.25.17.25.04.35-.13.47-.13.13-.34.22.13.21.47.38.38.17.8.6.43.38.78 1.24.34.8.46 2.26h-.04v.25q.04.09.04.22h.13zm-6.66-1.7-.17.16q-.08.05-.12.13-.09.13-.13.39 0 .2-.09.42l-.3.86q-.21.42-.3.85-.08.43-.38.72-.04.35-.04.64v.47q-.13 0-.13.13.04.09-.04.17-.09.13-.17.17l-.13.13q.17 0 .08.09-.08.04-.08.08-.04.26 0 .68.04.42-.04.9.25.04.42-.08.22-.13.34-.22.13-.08.17-.13.05-.08.13-.12.09-.09.22-.09.12 0 .2-.08l.27-.3q.34-.26.55-.39.26-.17.6-.34-.05-.21 0-.3.04-.13.13-.17l.12-.13q.09-.08.09-.25.25-.09.38-.39l.34-.6h.13q.04 0 0-.08 0-.13.04-.21.13-.22.22-.34.08-.13.08-.39 0-.08.05-.08.08 0 .08-.05.04-.12 0-.25 0-.17.04-.34.05-.26 0-.22l-.04.09q-.04.04-.08.04-.05 0-.05-.34-.42.04-.72-.21-.26-.26-.39-.56-.12-.3-.12-.55 0-.25.08-.22 0-.12-.04-.46 0-.39-.04-.82l-.09-.76q-.04-.34-.08-.43-.09.09-.26.51l-.3.94-.26.9q-.12.38-.17.42zm-5.63.38q-.17.6-.34 1.32-.17.68-.26 1.28l-.12.43-.13.47q-.04.2-.04.42 0 .17.12.22.22-.47.26-.94l.21-1.07.09-.13q.04-.08.08-.25.05-.09 0-.13 0-.09.05-.17 0-.09.04-.13 0-.04.04-.04.09-.22.13-.56.04-.34.13-.55.13-.43.3-.86l.34-.85q.17-.47.38-.94.22-.47.3-.94.13 0 .09-.08 0-.09-.22-.04l-.72 1.7q-.39.86-.73 1.84zm4.4-7.26q-.13.09-.26.26-.17.21-.21.34 0 .13-.09.39-.04.08-.17.12-.08 0-.13.13l-.17.43q-.04.17.26.17.13-.39.3-.68l.38-.6q-.08-.13 0-.21.09-.13.21-.22.18-.13.3-.25.17-.13.17-.3-.25-.17-.34.04-.08.17-.25.38zm-1.5 2.73q.05-.08.17-.17.17-.08.22-.17.08-.17-.05-.25-.12-.09-.2-.13-.14.3-.05.34.08.04.04.21-.04.09-.3.26-.21.13.13.34.13-.08.04-.21-.04-.13 0-.22zm.3-1.02q0 .38.26.43.04-.34-.26-.43zm31.2 6.87q-.1 0-.13.04h-.09q-.21 1.45-.55 2.56-.09.13-.13.34 0 .17-.09.3 0 .09-.04.09-.04-.04-.04.08-.09.26-.26.47-.13.22-.25.56-.05.04-.05.17.05.08 0 .13h-.13q-.04.04-.04.12.04.09 0 .13-.13.09-.13.17.05.09-.04.26-.04.08-.13.08t-.08.09q-.04.08-.04.17.04.04 0 .09l-.13.2q-.09.14-.17.22-.13.13-.26.22-.08.04-.21.2-.05.05 0 .14.05.09-.05.12l-.5.56q-.26.34-.6.6-.05.04-.13 0-.05-.05-.09 0-.08.08-.08.25 0 .13-.09.22-.08.08-.25.2-.13.1-.22.1-.13 0-.17.08 0 .09-.08.17-.05.04-.13 0t-.13 0q-.13.13-.3.17-.04 0-.13.09-.04.04 0 .04-.08 0-.12-.09-.04-.09-.13-.04-.05 0-.13.13l-.17.17h-.13q-.08-.04-.13 0-.08.13-.08.09 0-.09-.17-.09-.09 0-.34.09-.26.08-.6.04h-.51q-.3-.04-.52-.13-.04-.04-.04-.09.04-.08-.08-.08t-.22-.13q-.08-.13-.38-.17-.34-.04-.51-.17-.13-.17-.34-.38-.09-.05-.05-.09.05-.04-.08-.08-.22 0-.47-.22l-.39-.47q-.2.05-.3 0l-.2-.17q-.22-.08-.43-.3-.18-.21-.43-.42-.09-.05-.13-.13-.04-.08-.08-.13-.09-.08-.22-.08-.08 0-.17-.05-.08-.08-.04-.34.04-.25-.17-.25-.17 0-.17-.35-.05-.34-.13-.68-.09-.21-.09-.47-.04-.3-.25-.38-.04-.22.13-.22.12-.04.17-.2l-.34-.44q.12-.46 0-1.02-.13-.6-.05-1.28l.17-.98q.09-.34.22-.64.08-.3.17-.51.04 0 .04-.09-.04-.08 0-.17.04-.04.13-.04.13-.04.17-.09.08-.17.04-.38 0-.26.21-.21-.08-.69.26-1.28.04-.09.09-.05.04 0 .08-.12 0-.09.09-.26.12-.17.21-.34l.38-.6q.17-.3.39-.6.04-.08.04-.04.04 0 .09-.13 0-.17.12-.21.17-.04.26-.26.09-.12.09-.25.04-.13.12-.3.05-.04.13-.04.13-.05.17-.09 0-.08-.04-.17 0-.09.04-.13.13-.17.3-.3.17-.12.26-.25l.6-.6.5-.51q.3-.3.52-.64.13.04.08.13 0 .04-.08.04-.04.25.13.3-.05-.22.12-.3.17-.17.3-.26.17-.08.39-.3.04-.04 0-.12-.05-.13 0-.17.08-.09.12-.09.09 0 .18-.09l.17-.17q.08-.04.38-.08-.04 0 0 0 .09 0 .17-.04.09-.05.21-.09.26-.3.73-.26.51 0 1.02.26.56.21.98.56.43.34.56.6.21.04.38.12.17.04.26.26.21.04.17.34-.04.25.17.25.04.35-.13.47-.13.13-.34.22.13.21.47.38.38.17.81.6.43.38.77 1.24.34.8.47 2.26h-.04v.25q.04.09.04.22h.13zm-6.66-1.7-.17.16q-.09.05-.13.13-.09.13-.13.39 0 .2-.08.42l-.3.86q-.22.42-.3.85-.09.43-.39.72-.04.35-.04.64v.47q-.13 0-.13.13.05.09-.04.17-.08.13-.17.17l-.13.13q.17 0 .09.09-.09.04-.09.08-.04.26 0 .68.04.42-.04.9.26.04.43-.08l.34-.22q.13-.08.17-.13.04-.08.13-.12.08-.09.21-.09t.21-.08l.26-.3q.34-.26.55-.39.26-.17.6-.34-.04-.21 0-.3.04-.13.13-.17l.13-.13q.08-.08.08-.25.26-.09.39-.39l.34-.6h.13q.04 0 0-.08 0-.13.04-.21l.21-.34q.09-.13.09-.39 0-.08.04-.08.09 0 .09-.05.04-.12 0-.25 0-.17.04-.34.04-.26 0-.22l-.04.09q-.05.04-.09.04-.04 0-.04-.34-.43.04-.73-.21-.25-.26-.38-.56-.13-.3-.13-.55 0-.25.09-.22 0-.12-.05-.46 0-.39-.04-.82l-.09-.76q-.04-.34-.08-.43-.09.09-.26.51-.12.43-.3.94-.12.47-.25.9-.13.38-.17.42zm-5.63.38q-.17.6-.35 1.32-.17.68-.25 1.28-.04.17-.13.43-.04.21-.13.47-.04.2-.04.42 0 .17.13.22.21-.47.25-.94.09-.51.22-1.07l.08-.13q.05-.08.09-.25.04-.09 0-.13 0-.09.04-.17 0-.09.04-.13 0-.04.05-.04.08-.22.12-.56.05-.34.13-.55.13-.43.3-.86l.34-.85q.17-.47.39-.94.2-.47.3-.94.12 0 .08-.08 0-.09-.21-.04l-.73 1.7q-.38.86-.72 1.84zm4.4-7.26q-.14.09-.27.26-.17.21-.2.34 0 .13-.1.39-.04.08-.16.12-.09 0-.13.13l-.17.43q-.05.17.25.17.13-.39.3-.68.21-.35.39-.6-.09-.13 0-.21.08-.13.2-.22.18-.13.3-.25.18-.13.18-.3-.26-.17-.34.04-.09.17-.26.38zm-1.5 2.73q.04-.08.17-.17.17-.08.21-.17.09-.17-.04-.25l-.21-.13q-.13.3-.05.34.09.04.05.21-.05.09-.3.26-.22.13.12.34.13-.08.05-.21-.05-.13 0-.22zm.3-1.02q0 .38.25.43.04-.34-.25-.43zm41.98 14.64q-.04.08-.08.12-.04 0-.09.05-.13.12-.21.17-.04.04-.3.13-.21.04-.68.08-.43 0-.9-.08-.13-.05-.25-.13t-.26-.17l-.17.04q-.09 0-.09-.04v-.09q-.08-.04-.17 0-.04.04-.08 0v-.17q-.04 0-.13.04-.04 0-.09-.04v-.13q-.04-.04-.17 0-.08.05-.12 0v-.17q-.05 0-.13.04-.09 0-.13-.04-.21-.21-.6-.47-.38-.25-.6-.51 0-.34-.12-.64-.13-.3-.22-.64-.08-.17-.08-.3 0-.17-.09-.34-.04-.17-.12-.3-.09-.17-.13-.3-.05-.21 0-.5.05-.29 0-.6l-.09-.82q0-.34.09-.9.04-.16 0-.25-.05-.13 0-.25.04-.09.08-.13.05-.09.05-.17.08-.47.04-.9 0-.43.08-.81.05 0 .09-.04l.08-.09.22-.98q0-.04-.05-.13 0-.13.05-.17.13-.13.13-.3.04-.21.12-.5.05-.05.09-.05.04 0 .08-.09 0-.08.09-.17.08-.13.04-.3-.04-.12-.17-.04-.08.09-.13.21-.21.09-.3.3-.04.22-.17.43-.12.13-.3.26t-.25.25l-.17.17-.09.13q-.04.09-.04.21 0 .09-.08.17-.09.17-.26.3-.13.13-.21.3-.09.09-.09.21 0 .09-.08.18l-.13.17q-.09.04-.13.12-.04.08-.04.22.04.13-.05.25-.04.09-.12.13-.08.04-.17.13l-.77 1.36q-.05.09-.05.22t-.08.21q-.04.09-.13.13-.09.04-.13.13-.08.08-.08.21t-.09.26q-.04.08-.13.17-.08.04-.12.13-.09.12-.09.2.04.1-.04.18 0 .08-.13.17-.08.04-.13.13-.04.13-.04.25 0 .09-.09.17 0 .09-.04.09-.04-.04-.08.04-.05.3-.26.6-.17.13-.38.64-.09.21-.26.51-.17.26-.38.47l-.22.3q-.08.13-.3.3-.72.08-1.23-.26t-.98-.6q-.81-.55-1.28-1.66v-.13q.04-.12 0-.17-.13-.08-.13-.21.04-.13 0-.34-.04-.17-.09-.22-.04-.08-.04-.2-.04-.1.04-.18.13-.08.09-.26-.04 0-.09-.04-.04 0-.04-.08t-.04-.22q0-.17.04-.25l.04-.05q.05 0 .09-.04 0-.13-.09-.17-.04-.08-.04-.13 0-.25.04-.42l.09-.39.13-1.58q-.05-.17-.13-.04-.04.09-.13.04-.04.22-.17.35-.13.12-.21.25-.09.13-.13.26-.04.13-.13.3l-.17.17q-.09.04-.13.12v.13q.04.09 0 .09h-.13q-.08.34-.21.6-.04.08-.17.17-.09.04-.13.08v.17q.04.09 0 .09h-.13q-.04.08 0 .17.05.08 0 .13-.17.17-.21.3l-.17.3q-.04.04-.09.04l-.04.08q0 .17-.13.26-.12.08-.12.3v.17l-.13.17-.09.08q-.04.05 0 .17.04.09 0 .13h-.17v.17q.04.09 0 .13h-.13v.26q-.08.08-.3.55-.17.43-.34.68l-.6 1.16q-.3.5-.72.98-.6 0-1.02-.09-.43-.13-.9-.34-.04-.04-.04-.09.04-.04-.09-.04l-.17-.08-.17-.09q-.08-.04-.08-.13 0-.12-.09-.17-.17-.08-.34-.13-.17-.04-.34-.12l-.09-.13q-.04-.09-.13-.13-.2-.21-.6-.38-.38-.22-.72-.47.09-.22.04-.43l-.17-.43-.12-.68q-.17-.85-.17-1.45-.05-.64.17-1.66.08-.34.21-.73l.17-.77.3-.76.08-.82q0-.08.13-.17.13-.08.13-.12.09-.26.04-.39 0-.13.09-.42.04-.05.08-.05.05 0 .09-.13 0-.08.17-.42.17-.34.21-.56l.13-.55.26-.68q0-.05.04-.05t.08-.08q.09-.34.18-.47.12-.13.25-.39 0-.04-.04-.12 0-.13.04-.17l.17-.22q.17-.21.17-.34 0-.13.13-.3.17-.17.3-.38.04-.09.13-.17.08-.13.08-.22 0-.04.09-.12l.17-.17q.08-.17.38-.47.6-.52 1.2-.34.64.17 1.4.64.05.04.05.17.04.12.08.12.26.13.52.22.3.04.5.34.1.08.1.25.04.13.16.18l-.08 1.1q-.04.52-.17 1.11h-.09q-.04 0-.04.13-.04.13-.04.3.04.17.04.3-.04.17-.13.3-.08.08-.13.25-.04.09 0 .39.09.25 0 .34-.12.08-.25.55-.09.43-.09.81-.04.09-.13.13-.04.05-.04.17l.64-.72q.3-.34.64-.68t.6-.73q.26-.39.72-.51.26-.68.86-.73.6-.04 1.2.26.08.04.03.13 0 .04.13.04.05 0 .13.13.13.08.21.17.13.04.39.21.3.17.38.34.26.9.39 2.22.17 1.28-.09 2.35.04.17.13.08.08-.08.13-.17.3-.34.42-.72.13-.43.34-.86.22-.38.39-.76t.34-.77q.13-.22.21-.43.09-.21.22-.43.04-.04.12-.08.09-.04.13-.13.09-.08.09-.21t.08-.26l.22-.3q.08-.04.04-.17 0-.13.08-.21.09-.17.26-.3.21-.13.3-.3.04-.04 0-.13t0-.12q.04-.03.13-.05.08-.04.08-.08.09-.13.09-.22 0-.12.08-.25.09-.17.22-.26.17-.08.3-.3.25-.3.46-.6.21-.3.43-.63.04-.05.13-.05.13-.04.13-.08.04-.04 0-.13-.05-.13 0-.17.08-.09.17-.04.13 0 .21-.05.09-.08.04-.2 0-.18.09-.26.08-.09.17-.05.13 0 .21-.08.26-.3.47-.6.26-.34.73-.38.13-.39.34-.47.26-.13.6-.34l.34-.18q.21-.12.94 0 .42.13.85.39.47.21.94.6l.77.5q.17.18.25.3.13.1.22.3.04.05.04.26.04.17.08.21.13.09.09.22 0 .13.08.6l.09.8q.04.3-.09.99l-.08.17q-.04.04-.09.13-.04.38-.04.8 0 .4-.08.73 0 .04-.05.09-.04 0-.04.08v.3q.04.13 0 .21 0 .05-.04.09-.04 0-.04.09v.42q.04.34 0 .39h-.13q-.05.04 0 .17.04.08 0 .12-.17.13-.22.69 0 .5-.08.9h-.09q-.04 0-.04.12v.26q.04.17 0 .3 0 .04-.08.04-.05 0-.05.08v.3q.05.13 0 .22 0 .04-.08.08-.05 0-.05.09v.42q-.08.09-.08.17 0 .09-.04.22v.17q.04.13 0 .13h-.13q-.09.42-.13 1.02-.04.6-.26.98.05 0 0 .21v.39l.77-.73.22-.25q.2-.22.3-.43l.25-.26q.17-.2.17-.34t.17-.21q.17-.09.3-.21.04-.09 0-.17 0-.09.04-.17l.22-.09q.08-.09.12-.21.05-.17.13-.3.09-.09.17-.13l.22-.17q.08-.09.04-.17 0-.13.08-.21l.22-.09q.08-.09.04-.17 0-.09.04-.17.09-.13.26-.26t.3-.34q.13-.13.21-.3l.3-.38q.04-.04.04 0 .05 0 .05-.09.04-.17.12-.12.13 0 .22-.09 0-.04-.05-.13 0-.08.05-.13h.08q.09-.04.17-.12.13-.13.3-.09.09.13.17.3.13.13.43.08.04.18-.04.3-.09.13-.17.3-.05.09-.13.13-.08.04-.09.13-.04.08-.04.17 0 .08-.09.17l-.08.13q-.04.04-.09.13l-.34.55-.08.34q-.05.09-.13.13-.08.04-.13.13l-.08.3q-.05.08-.22.25-.04.09-.04.17.04.05-.04.13-.05.09-.13.13-.04.04-.09.13-.08.17-.12.42-.05.22-.13.47l-.39.56q-.04.13-.04.21.04.09-.04.17l-.22.21-.12.35q0 .08-.09.12l-.08.09q-.09.08-.17.21-.05.13-.05.26l-.47.55-.34.52q-.13.2-.42.5-.09.1-.13.26-.05.17-.22.09 0 .13-.08.21l-.13.13zm-6.52-15.2q-.22.18-.39.4-.04.03 0 .12t0 .13q-.04.12-.25.21-.18.09-.26.17v.17q0 .13-.04.09 0-.05-.05.04-.08.08-.08.26.04.12-.04.2-.09.1-.22.14-.13.04-.21.12-.09.13-.09.3.05.13-.04.26-.04.08-.13.17-.08.04-.17.13 0 .08-.13.21-.08.13-.08.21 0 .09-.09.09-.04 0-.04.04-.13.34-.25.6-.09.21-.18.34-.08.13-.08.21 0 .09-.04.26-.09.34-.26.77-.13.43-.13.77.13.17.17.42.05.22.34.17-.12-.47-.08-.76.04-.3.08-.81.18.08.22.04.04-.09.04-.17v-.22q.04-.08.17-.08.09.21.13 0 .04-.21-.13-.3.04.04-.08.13-.13.04-.05-.13.05-.13.22-.04l.17.04q.04-.13 0-.17-.05-.04-.09-.04-.04-.05-.04-.09 0-.08.13-.25-.05.2.04.3.13.04.21-.13-.08-.09-.04-.17.09-.13.21-.26.13-.13.22-.26.13-.17.13-.3-.09-.08-.22-.12l-.17-.13q.17 0 .13-.17.21.04.17.25 0 .22.26.17 0-.38.2-.5.22-.18.14-.65.25.09.17-.04l-.04-.21q.08-.09.2-.13.18-.04.18-.17 0-.17.13-.22.13-.08.13-.2-.13 0-.26.12l-.17.17q-.04.09-.09.09-.04 0-.12-.26.2.21.25.04.09-.21.26-.42h-.13q-.09-.09.08-.18.18-.08.18-.12.04 0 0-.09-.05-.13 0-.17l.25-.13q.09-.08.04-.17 0-.13.09-.25.08-.09.26-.17.2-.09 0-.26-.18.21-.3.3-.13.08-.34.3zm-15.92 3.76q0-.34.17-.43.17-.12.13-.42.25-.09.34-.39.09-.34.26-.6l.25-.12.09-.26q.04-.13.04-.21 0-.04.04-.09.05 0 .09-.04.04-.13-.04-.17-.09-.04.04-.08.13-.05.17-.13.08-.13 0-.17-.04.17-.3 0 .13.21-.09.34-.2.08-.3.21-.08.09-.08.21 0 .13-.04.22l-.17.38q-.09.13-.17.34-.05.09-.13.13-.08.04-.13.13-.08.13-.08.26t-.09.2l-.17.3q0 .1-.09.4 0 .03-.08.16-.09.09.08.13 0-.34.26-.3zm14.8-1.58q.26.09.05.3-.22.17-.04.43-.43-.13-.22-.26t.22-.47zm-71.3 8.34q-.1.38 0 .58.19.1.28.28.2.1.3.3.18.09.09.47-.58.39-.77 1.25-.1.86.38 1.73l-.57.38q-.2.2-.48.29.19 1.34-.1 2.3-.2.96-.2 2.6-.09 0-.18.1-.2.18 0 .18.48.3.38.87-.1.57-.29 1.34.3.39.48.2t.39-.2q.38 0 .77.1.38 0 .67-.1.48-.19.96-.48t.77-.48q.76.2 1.44.2.76 0 1.63-.2.19 0 .29-.1.1-.19.28-.19.1 0 .1.2t.2.1q.09 0 0-.1 0-.2.18-.2t.3-.1q.12-.1.37-.18.96-.2 1.83 0 .86.1 1.82.28.1 0 .1.2 0 .1.2.1h.47q.38-.1.67 0 .1.09.1.18t.2.1q.2.01.57.29.38.19.57.38.19.19.3.39.11.2.28.19.48 0 .96.77l.96 1.15q.29.29.57.48.39.19.68.77.19.38.28.86 0 .1.2.58.28.38-.1.96-.29.57-1.63 1.24-.2.2-.48.2-.2-.1-.58.1-.1.09-.1.18t-.19.1h-.19q-.38.2-.86.2-.48-.1-1.15.18-.48.2-.96.48-.48.28-1.06.48-.48.2-1.06.2-.57-.1-1.05.1-.2 0-.58.09-.38 0-.57.19-.1 0-.3.29-.18.19-.28.38-.2 0-.77-.1-.57-.1-.67.1-.1.1-.77.48-.67.29-1.15.29.2 0 0-.2t-.29-.09q-.19.29-.38.48t-.77-.19q-.38.1-.29.58.1.38-.38.38-.39.1-.58.38-.19.28-.57.3-.48.09-.96.47-.39.29-.96.77-.2.2-.58.1-.38 0-.57.19-.19.19-.2.29 0 .19-.28.28-2.3.39-4.42-1.53-.2-.58-.67-.77-.39-.29-.77-.48 0-.29-.1-.67 0-.48.3-.58-.2-.19-.49-.67-.29-.48-.77-.48-.38-.1-.28-.38.1-.39.28-.2-.28-.28-.48-.19-.1 0-.48-.19-.1-.1-.1-.2t-.18-.09q-.18.01-.3-.1 0-.19-.18-.19-.2-.57-.39-.96l-.38-.96q-.1-.38-.58-.28-.38 0-.57-.3-.2-.76.1-1.05.18-.29.28-.77-.48-.48-.48-1.53 0-1.15.2-2.21.09-.38.09-.67-.1-.39.48-.29-.2-.2-.48-.29-.2-.1-.2-.57.39.1.3-.39 0-.57-.1-1.15t-.1-.86q-.1-.39.29 0h.38q0-.39-.28-.58-.28-.19-.48-.77 0-.1.1-.19.18-.2.18-.38-.1 0-.19-.1-.1 0-.1-.2 0-.09.1-.57 0-.48.1-.67 0-.67.48-1.25.19-.77-.1-.96-.29-.29-.38-.86.38-.39.86-.29-.29-.77 0-1.25t.39-.96q.1-.38.1-.67 0-.29.09-.58.29-.57.29-.96.1-.48-.2-.57-.19-.2-.19-.67-.1-.39.2-.68.28-.38.28-.76 0-.2-.2-.3-.18-.18-.18 0 .29-.86.67-1.34.38-.48.58-1.15 0-.57-.1-1.15V156l.38-.19q.18-.09.48-.1-.19-.76 0-1.34.2-.67.3-1.44.18-.57.09-1.34 0-.87.67-1.15-.1-.48-.1-.87 0-.48-.1-.96.4 0 .49-.29.19-.38.29-.67l.19-.67q.19-.29.67-.2-.38-.66-.29-1.14l.39-1.16.38-1.15q.2-.67-.1-1.53.48.1.58 0 .1-.2.29-.3-.2-1.05.19-1.43.48-.48.29-1.63-.2-.87.28-1.06.48-.19.58-.77v-1.05q0-.58-.1-1.16.58-.19.39-.57-.1-.39.1-.87.1-.19.28-.19.18 0 .3-.19 0-.1-.1-.29V132q.19-.19.47-.1.3 0 .39-.18.1-.1-.2-.3-.19-.28-.19-.38 0 .1.2 0 .28-.19.19-.28h-.39q0-.1.1-.39.1-.38.2-.57l.28-.3q.2-.2.2-.28.18-.48.09-.96t.1-.96q0-.1.1 0 .09 0 .09-.29 0-.19.28-.57.28-.38.48-.58-.28-.86 0-1.25.3-.48.39-.96.09-.48.1-.67 0-.29.19-.58l.28-.28q.3-.48.39-1.16l.38-1.44q.2-.76.48-1.34.39-.67.96-.96.58-.2 1.15.29.68.48 1.25.96l.39.38q.19.1.38.58.29.19.38.38l.39.39q.29.76.57.96.2.19.3.48.18.28.38.48 0 .19.28.76.1.39.3.77-.49.39 0 .77t.28 1.44l-.29.29q-.1.1-.1 0 0 .19.2.48.29.29.29.67 0 .48-.1.67-.1.19-.1.58-.19.67-.1 1.05t-.18.87l-.2.38q-.1.2-.28.48-.1.48.1.87.28.28.28.76 0-.1-.1 0t-.1.3v.28q-.09.29-.09.77.1.38-.1 1.05 0 .1-.09.1t-.1.2v.28q-.1.29-.38.58-.2.19-.2.38.1.29.2.48.2.1-.1.48-.1 0-.28.2-.1.09-.2.09-.19.67-.19 1.44.1.77.1 1.34 0-.1-.29.1-.2.1 0 .19.29.2.2.48-.09.28.18 1.06-.67 0-.76.57 0 .48-.3.67.1.87.1 1.73t.1 1.73q-.29.2-.38.86 0 .58-.68.58-.1 1.15-.1 2.3.1 1.06-.09 2.12 0 .1-.19.1-.1 0-.1.18 0 .3-.1 1.25T94.1 156q0 .1-.1.48 0 .39-.19.48-.19.2-.1.58.2.38-.09.67h-.2q-.09.39-.09 1.15.1.68-.67.68.2.86 0 1.53-.1.58-.29 1.06-.1.48-.19 1.05 0 .48.29 1.25-.29.1-.29-.29-.29.1-.1.3.19.2.1.66-.67-.19-.67.2 0 .28-.39.38zm-.39-26.5q.1-.1.39.2.28.19-.2-.2-.1 0 .1-.19.1 0 .2-.1.18-.47 0-.67-.1-.28.18-.28.48 0 .2-.2-.28-.2-.2-.38.1 0 .3-.1.28-.28.28-.19.1-.29.1-.67 0-.48-.2-.58.1.3-.28.48-.39.1-.3.39 0 .1.2.1.29 0 .2.28 0 .1-.3 0-.28-.19-.28 0-.1.2-.1.67 0 .39-.1.87h-.29q-.19.19-.1.77.1.48-.38.48-.38-.87-.19-1.44.3-.58.58-1.06.28-.48.38-.86.1-.48.3-1.06.18-.38.37-.67.2-.39.2-.58.1-.29 0-.38 0-.2.19-.39.2-.28.2-.48.09-.28.28-.48.38-.67.48-1.15.1-.48.29-1.05 0-.1.19-.1.2-.1.29-.2.19-.38.1-.66 0-.3.18-.58 0-.1.1-.2v-.09q.1 0 .1-.1.19-.28.48-.86.19-.29.28-.38.09-.09.3-.29.09 0-.1-.2-.1-.18.1-.28.09-.2.18-.2.2-.09.3-.18.09-.2 0-.39-.1-.29-.1-.48.1-.19.28-.29.3-.19.2-.38-.58-.1-.77.38-.19.48-1.06.3-.48.47-.38.76.1.2-.2.67-.47 0-.76.58-.29.48-.29.67 0 .29-.1.29 0-.1-.1 0-.28.67-.57 1.05-.19.39-.1 1.16-.57.48-.95 1.05-.38.57-.3 1.73-.66-.2-.66.48.1.58-.1.96 0 .2-.1.1t-.19-.1v.38q.1.2.1.3h-.29q-.1.09 0 .28.1.19.1.38H89q-.1.1 0 .3.2.18 0 .28h-.29v.29q.1.19.1.38-.2.58-.48 1.15-.2.48-.2.96 0 .3-.09.3-.1-.1-.1.09-.19.48-.28.86-.09.38-.29.58-.1.19-.1.86v.67q0 .2-.19.2-.1 0-.1.1-.19.76-.28 1.53-.1.67-.2.96-.19.67-.19 1.34 0 .58-.19 1.06h.68q.48 0 .48-.29-.48 0-.68-.2.68-.18.68-.28 0-.38.1-.29.1.09.09 0 .19-.57.1-.86-.09-.29.09-.77 0-.1.29-.1.29-.1.29-.19.1-.19-.1-.57-.1-.48 0-.68.1-.1.29 0 .29.1.29 0 .19-.48 0-1.05-.1-.58.1-1.15.09-.1.28-.1.29 0 .29-.2.19-.28-.1-.86-.2-.57.58-.57-.48.67-.2.67.3-.1.48.2-.19.47-.38 1.05-.1.57-.57.77l-.39 2.01q-.19.96-.48 2.02-.1.48-.29.77-.1.19-.1.38l-.28.58q0 .19-.1.38 0 .38-.19.96v.2q.1 0 .1.09 0 .19-.2.19-.1 0-.1.1-.09.76-.09 1.05 0 .2-.1.58v.19q.1 0 .1.1 0 .19-.19.19-.1 0-.1.1-.19.76-.19 1.72 0 .87-.19 1.63-.2.87-.38 1.83-.2.86-.2 1.63v1.15q.1.67.39.67.2-.19.1-.67-.1-.48.1-.86 0-.1.18-.1.3-.1.39-.19.1-.48 0-.96 0-.48.1-.96h.28q.1-.1.1-.48.1-.38.1-.48.28-.38.19-.67-.1-.39.38-.87-.1-.1-.1-.19v-.29h.3q.28-.48.09-1.15-.2-.77.29-.77t.38.48q-.1.39.29.48l.38-.67q.28-.48.39 0 .1.39-.1.58-.1.1-.38.29-.2.1-.3.28-.1.18.1.77.1.2.3.29.18 0 .28.2 0 .38-.1.38-.1.1-.19 0 0 .38.39.57.48.2.57.29-.29-.86-.29-1.25.1-.38-.48-1.15.39-.1.39-.38 0-.39.48-.2-.1-.67-.39-.96-.28-.38-.38-.96 0-.28.2-.67.28-.38-.3-.57.1.67-.1.86-.18.1-.28.38-.1.2-.1.48 0 .2-.19.2 0-.68-.38-.96-.1-.58 0-1.06.19-.48.29-.86.19-.48.28-.87.1-.48-.19-.86.67-.2 1.35-.48.68-.28.48-1.44-.48-.2-.58-.1-.1.1-.2.39 0 .19-.09.38 0 .2-.2.29-.09-.48-.28-.2-.2.2-.29-.09-.1-.77.87-.67 0-1.35-.1-2.02-.1-.77.1-2.01.1 0 .38-.1t.48-.2q.2-.18.2-.38t-.4-.48q.2.77-.28.48-.38-.28-.29-.76.3.1.2-.2 0-.38.1-.48zm2.4-5.76q-.1-.38.1-.67.2-.29.29-.48.19-.29.19-.38.1-.2-.2-.39 0 .3-.19.58l-.38.38q-.2.18-.2.48 0 .2.4.48zm-1.05 1.73q.28.1.38-.1.2-.19.29-.47.09-.28 0-.48-.09-.2-.2-.2-.1.39-.28.68l-.2.57zm-7.2 10.18q.19-.2-.1-.77-.2-.58-.58.2.2-.2.39.28.19.48.29.29zm1.05 3.36h.67q.39-.1.2-.58h-.58q0 .2-.1.29-.1.09-.19.29zm2.88 9.02q.1-.19.29-.67.19-.48-.39-.58 0 .39-.19.3-.1-.2-.1-.4 0-.28-.19-.28.2.48.2.96.1.48.38.67zm1.54-.38q.19-.29.1-.67-.1-.48-.58-.58.1.48.1.86 0 .3.38.39zm-7.5.96q.2-1.06-.57-1.25 0 1.15.58 1.25zm-.95.29q-.2-.2-.2-.58h-.47v.58zm2.2 4.32q-.09-.68-.57-.96 0 .86.58.96zm6.34 1.24.68-.67q.57-.57.1-.86 0 .29-.3.48-.19.1-.48.29-.28.1-.38.28-.1.18.38.48zm-7.3.96q.3.2.4 0 .18-.19.18-.48t-.1-.48q-.09-.28-.28-.28.1.48-.2.67-.19.1 0 .57zm7.01.3q.48.18.68-.4.28-.66-.1-.57 0 .48-.38.48-.3-.1-.2.48zm-6.9.95q.28 0 .18-.38-.1-.38-.19.1-.29.76-.48 1.63-.1.86.1 2.01-.2 0-.2.2 0 .09.2.09.29-.77.48-1.82.29-1.16-.1-1.83zm3.06 3.65q0-.2.2-.67.28-.48-.3-.58-.09.2-.28.77-.1.48.38.48zm-1.34 5q.77.18.96-.3.2-.57-.58-.67.2.48-.1.67-.18.1-.28.3zm-1.34 1.14q.1-.57-.39-1.24-.38-.77-.57-.2.28 0 .28.3.1.28.1.57 0 .29.1.48t.48.1zm30-48.85q-.26-.13-.6-.21-.3-.09-.5-.26l-.14-.13q-.04-.08-.13-.13-.04-.04-.12 0-.08.04-.13 0t-.09-.12q0-.09-.04-.13l-.43-.26q-.2-.13-.42-.34-.09-.08-.09-.17.04-.13-.04-.21-.04-.09-.13-.13l-.13-.13v-.13q.05-.04 0-.12-.04-.18-.12-.73-.05-.6.04-1.2v-.2q.08-.1.04-.1 0-.04-.04-.04 0-.04-.04-.08 0-.09.04-.3 0-.04.04-.04t.04-.09q.05-.25.26-.47.21-.21.38-.5.17-.1.39 0 .21.03.47.12.34.08.47.17.17.04.38.21.09.05.04.09 0 .04.09.04.17 0 .25.17.09.17.26.3.21.21.47.3.26.08.47.3.04.04 0 .13t0 .12q.04 0 .13.05t.08.08q.04.09 0 .21-.04.09 0 .18.04.04.09.04.04 0 .04.08.04.22 0 .39t-.13.42l-.08.47q-.05.22-.13.39-.04.04-.09.21 0 .13-.04.17h-.13v.13q.05.04 0 .08h-.13v.13q.05.09 0 .13-.12.13-.25.47-.09.34-.3.64zm2.77 8.36q-.08.26-.38.26-.04-.21.08-.21.13-.05.3-.05zm-.98 2.22q-.21-.08-.34.04l-.17.17q-.09.09-.17.13-.09.05-.09.26-.08 0-.2-.17-.1-.17.2-.09 0-.21.13-.21-.17-.38-.04-.6.17-.25.3-.51h.72q.05-.26-.21-.26-.04-.12.09-.08.12 0 .12-.04.09-.13-.04-.09-.13 0-.17-.04-.04-.09.04-.13.09-.04.09-.13.34-.08.34.09 0 .13-.13.3.17.04.26-.05.08-.08.13-.17l.08-.13q.09-.08.3-.04.13.13.08.22l-.17.12-.17.13q-.08.09 0 .3-.25.04-.25-.26-.17.09-.17.17l.08.13q.09.09.17.22.09.08.05.2-.18.1-.22.22 0 .13-.17.3h-.13q-.08-.04-.08 0-.09.09-.17.13l-.09.08q-.04.05.04.18.09.12-.04.34-.04.08-.17.12-.13.05-.21.13 0 .34-.09.56-.08.17-.21.38-.13.17-.21.43-.09.21-.09.55-.08-.04-.08.09.04.08-.05.17h-.13q-.08-.04-.12 0-.04.04 0 .08.04.05 0 .13t-.09.22l-.13.3q-.04.08-.04.16 0 .09-.08.22-.05 0-.13.08-.05.09-.09.13 0 .04.04.13.09.17.09.26 0-.09-.09 0-.04.04-.04.08v.13q.04.04 0 .13 0 .04-.13.04-.08 0-.12.04-.04.04 0 .13.04.04 0 .09l-.17.3q-.09.12-.22.34 0 .08-.08.08l-.05.04q-.08.09-.04.26.04.13-.04.21-.09.09-.21.13-.13.04-.18.26 0 .25-.42.3-.39.04-.51.38-.09.21-.56.26-.47 0-1.1-.13-.6-.17-1.2-.43t-.98-.64l-.17-.17q-.05-.09-.18-.21-.08-.09-.25-.09-.17-.04-.26-.13-.08-.08-.13-.21-.04-.13-.17-.26-.08-.12-.25-.2l-.26-.22q-.08-.13-.13-.34-.05-.21-.12-.43 0-.09-.09-.13l-.13-.13v-.21l-.13-.51q-.12-.39-.12-.6l.04-.04.08-.09v-.25q.13-.13.05-.13-.09-.04-.05-.26.05-.13.05-.25t.08-.22q.05-.08.13-.12.09-.09.09-.13.08-.3.08-.6 0-.34.04-.73.17-.08.26-.25.04-.17.13-.34.08-.13.08-.26-.04-.13.05-.34.04-.09.17-.09.08 0 .08-.04.04-.08.04-.13-.04-.08-.04-.12l.04-.13q.09-.22.09-.43-.04-.21.04-.43.05-.08.13-.08.13 0 .13-.04.08-.22.08-.47.05-.26.17-.47.05-.04.05-.17.04-.17.08-.22.13-.08.09-.17-.04-.12.04-.3.04-.08.13-.08t.08-.04q.09-.13 0-.26-.04-.17 0-.26.05-.04.09 0 .04 0 .04-.08 0-.13.09-.17.13-.09.17-.21.04-.09 0-.13-.04-.09 0-.13.04-.04.13 0 .12.04.12 0v-.13q.09-.08.13-.17.04-.08.22-.17-.05-.26.04-.38.08-.13.08-.35.13 0 .17-.08.09-.09.13-.17.04-.09.09-.13.08-.08.25-.08-.08-.52.22-.64.3-.13.5-.35.35.09.7.22l.76.25q-.09.22-.04.34.08.09.12.18.09.08.13.17.05.08 0 .3 0 .12.05.12.04-.04.12-.08.09-.05.13-.05.09-.04.09.13 0 .13.08.09.09-.09.17-.09-.04 0 0 .09.09.08.13.04.09-.13.13-.04.04.04.21.04.09.04.04.17 0 .09.09.17.04.04.13.09.13 0 .13.04.08.09 0 .34-.05.26.25.26-.17.3-.13.55.09.22 0 .43h-.25q0 .04.08.17.09.08.05.21 0 .05-.13.13t-.13.13q0 .13.09.25.12.13.04.35-.09-.05-.13-.09-.04-.04-.13-.04.09.47-.04.85l-.17.81.04.47q.04.34-.04.43h-.13v.21q-.17.13-.17.56.04.42-.09.8 0 .05-.08.05-.04 0-.04.08t-.05.13q-.05.05-.08.13-.04.21 0 .51.04.26 0 .56-.04.34-.21.6-.13.25-.05.6 0 .12.09.08.09-.04.17-.05.13-.04.21 0 .09 0 .04.22.3-.04.26-.34-.04-.34 0-.64h.21q-.04-.17.05-.22.08-.08.08-.17.09 0 .09.09t.04.17q.17 0 .21-.13.05-.17 0-.3 0-.13-.04-.13 0-.04.09.22.12-.05.12-.22v-.3l.26-.12q.08-.09.21-.13-.04-.09.05-.17.04-.04.08-.04.04-.09-.04-.17-.09-.09-.09-.05.05-.13.17-.13.13-.04.05-.25l.17.08q.08.05.21.05-.04 0 0-.09.09-.13.13-.04.08.13.21-.13.22.04 0 .26-.17.17-.34.12.13.13.13.43.3.17.21-.08-.08-.26 0-.35.09-.08.22 0 .12.05.17 0 .08-.08-.05-.12-.08-.05-.08 0 .04-.13.08-.09.09.04.17-.04.09-.17 0-.3-.08-.17.13-.3zm-4.65-5.12q.26 0 .3.17.09.17.21.3.17-.51.17-.77.05-.3.09-.94-.09-.04-.26-.2-.17-.18-.25.12.21.04.21.17t-.21-.09q-.09.43.04.43.13-.04.21.04-.08.17-.08.43t-.17.34q-.13-.25.04-.43.17-.2-.04-.2-.09.12-.13.33-.04.17-.13.3zm1.24-.38q.08-.34-.04-.43-.13-.13-.09-.43 0-.12-.13-.08 0 .34-.04.6-.04.2.3.34zm-1.11-.47q-.13 0-.17-.13 0-.13-.09-.13-.08.22.05.34.17.13.2-.08zm-.34 2.17q.17-.42-.26-.85.13.17.09.47 0 .3.17.38zm-3.42 7.17q.05-.25-.04-.3-.04-.08-.13 0-.04.05-.04.17.04.09.21.13zm1.46-4q.17-.18.12-.3-.04-.14 0-.3.05-.1.13-.13.13-.09.13-.13.08-.26.08-.34 0-.09.05-.26.04-.08.08-.08.05 0 .05-.05.12-.3.04-.3-.04-.04-.04-.17 0-.08.04-.12.08-.05.08 0 0-.09-.08-.05-.04 0-.04-.04-.05-.17.12-.3.22-.13.13-.21-.13-.09-.25-.13-.09-.09-.26-.13 0 .22-.13.34-.08.13 0 .43-.13-.04-.08.04.04.09-.05.17-.04.05-.12.05-.05 0-.09.04-.09.21-.09.43.05.2-.04.3 0 .04-.13.04-.08 0-.12.08-.09.22-.09.47.04.21-.04.43-.09.04-.13.08l-.13.13q-.08.21-.08.51.04.26-.05.47l-.12.13q-.09.17-.13.47 0 .26-.09.34v.13q0 .08-.08.08-.05 0-.05.05-.08.34-.08.68t-.04.68q.12 0 .21.09.09.08.17-.09-.17-.21 0-.21t0-.17q-.08-.09 0-.13.08-.04.09 0 .04-.17.04-.26 0-.12.08-.2.05-.05 0-.14v-.12q.05-.09.13-.13.08-.04.13-.13t0-.17q-.04-.09 0-.13.04-.08.13-.13.13-.08.13-.13.08-.17.04-.38 0-.21.08-.34.05-.09.13-.13.13-.08.13-.13.04-.12 0-.25 0-.13.09-.13-.13.3.12.43t0-.05q0-.42-.12-.5zm1.96-2.4q.21.09.21-.08.04-.22.13-.3-.21.04-.26-.04 0-.13-.08-.22zm0 .94q-.09-.34.04-.38.13-.09.17-.22-.21.05-.25-.04-.05-.08-.09-.21-.04-.13-.09-.22 0-.12-.12-.12l.08.68q.04.3.26.51zm.85 0-.08-.47q0-.25-.17-.34-.13.09-.05.38.13.26.3.43zm-.38.21-.09-.34q-.04-.17-.3-.13 0 .22.13.3zm-.81.64-.09-.47q0-.25-.17-.38-.13.21-.08.47.08.26.34.38zm.34-.64q0 .17-.26 0-.04.22.04.26h.22q.13-.04.13-.13.04-.08-.13-.13zm-.86 1.24q.09 0 .13.04.04.04.13.09.09-.09.13-.34.08-.26-.13-.26.04.43-.26.26zm.94.85q.09-.08.05-.34 0-.3-.26-.25 0 .47.21.6zm-.68-.2v-.26h-.26v.25zm30.08 10.36-.38.6q-.51.08-1.02.12-.47.05-.94-.12-.09-.05-.26-.09-.17 0-.3-.08-.08-.05-.13-.26-.04-.17-.08-.21-.13-.09-.13 0 .04.12 0 .17-.08 0-.13-.17-.04-.17-.17-.17-.08 0-.17-.09-.04-.04-.13-.08-.3-.18-.68-.52-.34-.34-.68-.72-.04-.04 0-.13.04-.13 0-.17-.04-.09-.17 0-.09.04-.13 0 0-.09.04-.17.05-.13-.04-.17h-.13q-.04-.09 0-.17.04-.13 0-.17-.13-.09-.13-.22.05-.17 0-.6-.04-.2-.08-.25-.04-.04-.09-.21-.08-.98-.08-2.22 0-1.24.08-2.26l.13-.81.17-1.07.13-.9.17-1.02q0-.09.04-.13.04-.04.09-.04.04-.21 0-.47t0-.47q.04.04.08 0l.09-.17v-.17q.04-.17.13-.9.13-.72.08-1.2.13-.08.17-.2.09-.13.3-.1 0-.46-.08-.59-.08-.13.08-.47-.08.09-.25.13-.13.04-.22.17-.04.04 0 .17.09.09 0 .17-.04.05-.13 0-.04-.08-.08 0-.04.05 0 .13t0 .13q-.09.08-.3.21-.17.09-.3.26-.08.17-.08.34.04.17-.05.34-.08.13-.3.21-.17.09-.25.26-.04.04 0 .17t0 .17q-.26.26-.51.73-.22.47-.56.68-.04.51-.34.77-.25.21-.34.64-.3-.09-.3.17 0 .25-.13.34-.12 0-.12-.17v-.34q-.22.13-.22.47 0 .3-.08.5-.13 0-.17.14-.05.08-.09.21-.04.09-.13.13-.04 0-.17-.13.09.43-.13.47-.12.04-.12.13.04.04.04.13.04.04 0 .04t-.21-.13q0 .43-.26.47 0 .38-.09.68-.08.26-.2.51l-.3.47q-.14.26-.22.56-.17-.09-.26-.64-.08.08-.17.13-.08.04-.13.2.05.14.17.14.13 0 .13.17v.8q-.08 0-.08-.12t-.05-.21q-.3.13-.2.38.12.21.03.43 0 .08-.12.08t-.13.09q-.04.04 0 .17.04.08 0 .13-.09.08-.22.08-.12 0-.17.09-.08.08-.08.21t-.09.26q-.04.08-.08.04t-.04.09q-.05.2-.13.12-.09-.12-.17-.12-.09.34-.22.64-.12.25-.34 0 .09.25 0 .38t-.13.3q-.08-.09-.34-.04h-.47q-.26 0-.47-.09-.17-.09-.2-.38-.14 0-.14.12t-.04.22q-.3-.09-.38-.47-.05-.43-.3-.68-.09.12-.09.3.04.16-.04.5-.3-.12-.3-.46-.08-.09-.26.04-.17.13-.12.13-.13-.05-.17-.22-.05-.2-.13-.3-.13-.04-.13.05v.13q-.13.04-.17-.13-.04-.17-.09-.17-.08-.05-.25.08-.22.09-.17-.42-.34.08-.39-.09-.04-.17-.25-.21.08-.34-.09-.51-.17-.22-.21-.43-.04-.21.04-.26.09-.08.13-.21l-.09-.09q-.08-.08-.08-.12 0-.09.08-.3.09-.22-.08-.64.17-.05.21.04l.09.17q.04.09.08.13.05 0 .17-.17v-.26q-.04-.04-.08 0-.09.04-.13.04-.09 0-.17-.12-.04-.69.13-1.11.13-.43.13-1.07.2-.08.2.09-.03.17.18.2.21-.29.04-.25-.17 0-.21-.38.04 0 .08-.09.09-.08.09-.25-.04-.17-.17-.17.08-.09.34-.3.21-.26-.04-.34.08-.22.25-.22.13-.04.05-.38.08.04.12.17.09.09.26.13.04-.17 0-.39 0-.25-.04-.42 0-.17-.09-.22-.04-.08-.13.09-.25 0-.08-.17.13-.21.34-.13-.09-.13-.17-.17-.09-.08-.09-.3 0 .04.09-.17.08-.21.04-.21h.26q0-.04-.04-.13-.05-.13-.09-.17 0-.09.04-.09.05-.04.26.13.21-1.45.68-2.47.51-1.07.94-2.22.34.08.43-.04.08-.17.3.04-.05-.21.04-.21.08-.05.08.08.17 0 .17-.08t-.08-.18q-.04-.08-.09-.12-.04-.09.09-.09.21-.08.25.09.05.17.05.38.17-.04.13-.26-.05-.2.17-.2.3-.14.25.12v.47h1.37q.08.13.13.25.04.09.17.09.08 1.1-.05 1.96-.08.86-.25 1.7v.27q.04.12 0 .25 0 .04-.13.09-.09 0-.09.08-.08.22-.08.47 0 .25-.09.47-.08.21-.17.38l-.13.39q.09.21.18.08.08-.17.3-.08l.16-.43q.09-.25.22-.51.04-.09.13-.17.08-.09.12-.17.09-.09.09-.21 0-.13.08-.22.05-.08.13-.08.13-.05.13-.09.09-.21.09-.34.04-.13.17-.34.21-.21.25-.3.05-.09.05-.26.04-.17.12-.25.22-.3.52-.51.3-.26.6-.56-.1-.34.04-.38.12-.09.08-.43.09-.08.09.13v.21q.12.04.12-.04.05-.09.05-.21 0-.13.04-.22.04-.08.26-.04v-.64q.2-.09.34-.09.12-.04.21.09.21.09.17-.17 0-.3.21-.3.09-.04.17-.13l.13-.17q.09-.08.3-.38t.34-.3q.22 0 .43-.6.3.09.3.13.04 0 .25-.3l.26-.34q.09-.09.26-.13.17-.08.21-.3 0-.12.13-.21l.25-.13q.22-.13.39-.34.21-.26.42-.47.35-.3.6-.47.26-.21.34-.64.39.22.86.39.47.12.8.38l.43.34q.17.13.39.21.21.05.34.13.08.09.13.26l.08.21q.09.09.22.17.17.09.2.17.1.09.1.34 0 .26.04.43l.12.26q.09.08.18.25.04.09 0 .26-.05.17 0 .34 0 .17.04.43.08.21.08.34 0 .3-.08.38-.04.09-.04.3-.09.6-.09 1.03.04.42-.09 1.02 0 .08-.08.08l-.04.05q-.05.3 0 .55.04.22 0 .43 0 .04-.05.04t-.08.13q0 .08-.04.17-.05.04-.09.17-.04.21 0 .47.09.21 0 .47 0 .04-.08.08-.05 0-.05.09v.17q-.13.26-.17.47 0 .21-.13.9-.12.68-.25 1.15l-.17.8q-.13.6-.26.95v.17q.04.08 0 .13-.17.17-.17.68t-.08.98q0 .04-.09.04-.04 0-.04.09-.05.25-.17.6-.09.34 0 .85-.22.17-.22.43.05.25-.04.5-.04.05-.17 0-.09-.04-.13 0-.08.1 0 .4.09.29 0 .38h.09q.04-.05.08-.05l.26.64q.17-.13.17-.5.17-.1.21-.27.09-.17.3-.2 0-.35.13-.48.17-.17.26-.42.08-.09.08-.13 0-.04.04-.13.05-.09.09-.13l.13-.08.08-.26.13-.13.09-.17q0-.04-.05-.08 0-.09.05-.13h.12q.05-.09 0-.17 0-.13.05-.22.08-.08.12-.08.09 0 .13-.04.04-.09.04-.17 0-.09.09-.18l.17-.08q.09-.17.09-.34.04-.17.12-.3l.17-.17q.09-.13.13-.26.09-.08.05-.17 0-.13.08-.17l.21-.13q.09-.08.09-.17 0-.13.04-.21 0-.09.04-.04.05 0 .05-.09t.04-.17l.17-.17.09-.3q.25-.17.34-.3l.08-.42q.05-.05.09-.05.08 0 .13-.08t0-.17q0-.09.08-.17l.04-.05q.05 0 .05-.08.04-.17.17-.26.17-.08.25-.25.09-.09.13-.26.04-.17.13-.26.04-.08.13-.12.09-.04.17-.13.08-.09.08-.13l.13-.08q.51-.05.68.3.22.3.69.3 0 .25.08.3-.08.03-.08.2.04.18 0 .26-.09.09-.09.17.04.09-.04.26h-.09q-.04 0-.08.04-.09.09-.04.21.08.09.04.17-.09.09-.13.09-.04.04-.09.04-.08.17-.08.34.04.17-.04.26-.05.08-.13.08-.04 0-.04.09v.21h-.13q-.04.05-.04.13.04.09.04.13h-.13v.13q.04.08 0 .13l-.13.12-.08.13v.13q.04.08 0 .08-.22.22-.39.69t-.38.8q0 .05-.04.05t-.05.09q0 .12-.08.25-.09.09-.09.26t-.13.25q-.12.09-.2.26-.05 0 0 .13.03.08 0 .13h-.1q-.04.04-.04.12.05.05.05.09-.22.21-.35.55-.08.35-.3.69-.04.08-.08.04v.08q0 .18-.13.26l-.17.21v.26q-.04.09-.21.17-.17.09-.26.21v.13q.05.09 0 .13-.08.09-.17.09-.08-.05-.13.04l-.08.21v.3q-.21-.26-.3-.04-.04.17-.26.17.09.25-.04.34-.13.08-.08.34-.13.09-.22.26-.08.21-.25 0-.05.08 0 .17.04.13 0 .21-.09.09-.13.09zm-15.48-7.85q.25.17.3.08.04-.08.04-.25v-.34q.04-.17.21-.17v.34q0 .13.13.17.08-.26.21-.43.13-.17.22-.38-.22-.22-.39-.51-.13-.3-.34-.56.3.09.34-.13.04-.21.26-.21.04-.13 0-.21-.05-.09-.13-.17-.04-.09-.04-.13 0-.09.17-.13.21.55.34.98.04.09.04.21 0 .09.09.09.08-.3 0-.51-.05-.26-.13-.47-.09-.26-.13-.47-.04-.21.13-.47.04.17.3 0v.3q0 .17.13.17v-.64q-.22-.13-.47-.13-.22 0-.17-.34.08 0 .17.13.08.08.17-.13-.26-.21-.09-.51l.26-.43q-.3 0-.39.17v-.94q.34 0 .34-.34 0-.38-.25-.51-.04.21.04.34.13.09-.04.17-.09 0-.09-.17 0-.21-.04-.38 0-.17-.04-.22 0-.08-.04.09-.13.3.04.47.17.17-.04.21-.35-.21-.22-.47.13-.26-.21-.34.08.34-.04.64-.09.26-.09.51 0-.04.04.09.09.13.09.34.04.17 0 .3 0 .13-.13.04-.04-.21-.04-.38.04-.22-.13-.3 0 .25-.21.17.08.47-.09.64-.17.13-.38-.13v1.4q.34-.08.34.18 0 .21.13.3-.13 0-.17-.04-.05-.09-.13-.13-.09.34-.09.55 0 .17-.08.26-.05.04.04.3.04.12.13.21.04.09-.04.26-.05.12.04.2.08.18.21.1.17-.1.21.08 0-.04-.08.04-.09.09-.17.22-.09.08-.09.17 0 .08.22.04 0-.09.08-.09.13-.04.13.09-.17-.04-.21.08-.05.09-.17.18.04-.18-.09-.22-.13-.04-.21-.17 0-.21-.13-.17-.09.34.08.51.22.17.22.39 0 .04-.13.04l-.17-.04q-.04.04 0 .25.04.17.13.09 0-.09.04-.09.09-.04.13.09-.17.21-.3.47-.09.21 0 .68.43-.09.47-.38.08-.3-.04-.6zm5.33-5.76q.08.34-.13.43-.21.08-.3.25-.04.09 0 .21.05.13 0 .22 0 .04-.13.08l-.12.09q-.09.08-.05.25.05.18-.08.22.13.13.08.13H129q-.08-.05-.21-.05-.09 0-.09.09.13.08.09.3 0 .17-.09.38-.08.17-.2.26-.14.04-.22-.13.08.77-.09 1.24-.17.47-.3.94l.17.08q.13.04.05.26-.17-.09-.22 0-.04.08-.04.21v.26q0 .08-.13.04-.08-.21-.12-.04-.05.12-.18.17-.12-.26.09-.43.21-.17-.09-.21-.08.21-.12.12-.05-.08-.13.05.04-.05.08.04.09.04.05.13.04-.09-.22.17-.21.25-.21.47 0-.04.04.04.09.04.09.13.04.08 0 .17v.17q0 .13-.09.13h-.04q0 .21.13.13.17-.13.17 0-.04.2-.17.2-.09 0-.13.14.51 0 .43-.26-.05-.3.12-.51 0 .08.05.21l.08.26.09.13q.08 0 .08-.17-.25-.22-.08-.47.21-.26.34-.47.08.38-.09.5-.17.14.09.18.08 0 .13.17.08.13.12.3.05.13.09.17.04.04.09-.21-.05-.22-.18-.3-.08-.09-.12-.3l.3-.17q.08-.13-.05-.26-.08-.13-.08.09-.09.17-.17.17.04-.3.12-.51.09-.22.3 0-.08-.34.09-.39.17-.04.21-.25h-.25q-.12 0-.17-.17.3-.17.38-.05.08.09.17-.12-.13 0-.13-.18 0-.2.13-.2.04.25.26.38 0-.52-.05-.86-.04-.34.3.13.13-.3-.08-.55-.22-.26.08-.43 0 .21.04.43.05.17.26.08.09-.21-.13-.38-.17-.22.13-.3.13-.04.13.17v.64q.04.08.13-.13v-.21q.04-.13.12-.13.09.17 0 .3-.04.13-.12.21-.09.09-.13.17 0 .09.13.13.04-.21.17-.21.17-.05.25-.13-.12-.3-.12-.6v-.55q.04-.3 0-.52-.05-.25-.3-.42l-.09.25q0 .13-.17.09-.08.13-.04.26l.08.17q.05.08.05.17.04.04-.09.04-.04-.17-.3-.34v.34q0 .13-.08.13-.09-.51.17-.64.25-.13.34-.47-.17-.04-.17-.09 0-.08.04-.17.09-.13.13-.25.04-.12 0-.26.13.04.21-.04.13-.13.17-.26.05-.17 0-.3 0-.17-.13-.21-.12.13-.17.26v.25q0 .13-.04.21-.04.09-.3.09 0-.13.09-.26t.17-.25q.08-.13.08-.22.05-.12-.08-.25zm6.06 11q.08.1.17.1.13 0 .21.08.13.08.17.17l.13.17q.21-.34.09-.68-.13-.39-.22-.81-.13-.47.05-.6.2-.13.25-.34 0-.17-.04-.34-.04-.22-.26-.13-.21 0-.17.21.09.21 0 .43l-.08.08q-.05.05-.05.09 0 .21.09.34.13.08.04.26l-.25.17q.04-.05-.05-.09-.08-.08-.08.09.21.04.13.38-.05.34-.13.43zm-3.89-13.1q.18-.42 0-.89.09 0 .09-.08.04-.09-.09-.09 0 .13-.08.13l-.13-.13q0 .3.13.47-.21.04-.34.04-.09-.04.04.09.04.08-.08.25l-.35.35q-.17.17-.34.38-.17.17-.17.3.26-.04.34-.17.13-.13.17-.3.09-.17.18-.3.08-.17.25-.21.04 0 .04.21.05.21.13.13.09-.09.04-.34-.04-.3.18-.13-.13.17-.09.51.09.34.38.3.05-.26-.08-.3-.13-.08-.21-.21zm4.14-7.93q.17.04.09.13-.09.04-.09.17-.3-.08-.47.17-.12.26-.34.47l-.3.21q-.12.05-.25.13l-.43.47q-.13.13-.25.21-.13.09-.13.3-.17-.08-.09-.17.09-.13.17-.17 0-.25.17-.34.22-.08.43-.3.13-.13.21-.34.09-.21.17-.34.05-.04.13.04.13.04.17-.04.05-.04.05-.13.04-.13.08-.17.04-.04.13.04.13.05.17-.04.17-.17.26-.17.12.04.12-.13zm-9.04 14.68q0 .13.04.13h.09q-.09.04.04.21.17.13.26.09.2-.3 0-.56-.18-.21-.3-.13-.13.09-.13.26zm7.93 6.53q.09-.34.09-.6.04-.3-.17-.56-.21.69.08 1.16zm-6.4-5.6q.05.1 0 .22-.04.09-.12.17-.05.09-.05.17 0 .04.17.09 0-.26.05-.26.08 0 .17.04.08 0 .17.05.08 0 .13-.17-.22 0-.26-.17 0-.22-.26-.13zm-3.84-4.9q.13.21.3.34.17.13.09.6-.26-.09-.3-.38 0-.3-.09-.56zm-2.81 4.74q-.13-.09-.17 0-.09.08-.09.21-.04.09-.04.13l.09-.17q.3.08.38-.05.04-.17.26.05v-.34q-.09 0-.13-.05-.05-.08-.13-.12-.04.08-.04.2 0 .14-.13.14zm3.37-3.33q-.34.17-.26.08.09-.08.09-.42.13.21.25.34.18.13.18.47-.22.08-.26-.09zm-2.65 4.65q.22-.09.17.17 0 .26.22.26.13-.09.08-.22 0-.17-.08-.25-.09-.09-.22-.09-.12-.04-.17.13zm2.1-4.01q.3.08.25.64-.13 0-.13-.13t-.04-.21q-.09-.05-.09.17-.08 0-.12-.13v-.21q.12.04.12-.13zm1.45-1.28v-.39q0-.2-.13-.25-.17.17-.17.38.04.22.3.26zm-3 5.12q0-.34-.29-.51 0 .21.04.42.05.17.26.09zm-.97-1.8q.08-.55-.3-.6.08.56.3.6zm2.9-6.35h.3v-.34h-.3zm-2.77 2.69h.3v.34h-.3zm7.8-1.37q-.04-.25.09-.3.13-.08.21-.21-.21-.13-.38.17-.17.26.08.34zm6.66 9.82q-.17-.22-.26 0-.08.17.13.17.09.04.13.3.08.2.08.17.05-.09 0-.22-.04-.17 0-.25-.08.04-.08-.17zm-13.78-5.85q.04 0 .04-.13.04-.17 0-.25 0-.13-.04-.13-.04-.04-.13.17-.04.08 0 .21t.13.13zm1.4-2.43q.1-.22.13-.04.09.17.05.38-.09.21-.17.04-.05-.21 0-.38zm7.43-6.83q.17.04.13.09 0 .04-.09.12l-.13.13q-.04.05-.04.09-.17-.04-.17-.09l.09-.08.12-.13q.09-.04.09-.13zm-8.36 7.17q0-.21-.09-.38-.04-.18-.08.04-.05.17 0 .38.08.17.17-.04zm4.35 1.75q-.13.08-.13.13h.04l.17-.09q.09-.08.05-.21-.05 0-.09-.04-.04-.05-.13-.09-.04.09 0 .17.05.04.09.13zm25.18 9.73h-.35q-.17.04-.34-.05-.13 0-.38-.08t-.39-.21q-.2-.09-.34-.3l-.64-.34q-.08-.09-.12-.22-.05-.13-.13-.21l-.39-.3q-.04-.09.05-.17.04-.13 0-.17H150q-.04-.04 0-.13.04-.13 0-.17-.09-.04-.17-.34-.13-.3-.05-.68v-.13q-.04-.09 0-.13.09-.09.09-.17-.04-.13-.04-.51t.04-1.03q0-.68.09-1.15.04-.21.12-.25.09-.09.17-.3.05-.17.05-.34-.05-.18.12-.18 0-.2-.04-.3-.08-.08-.08-.3 0 .05.12 0 .09-.08 0-.12-.08-.13-.04-.13t.13-.13v-.5q-.04-.48.04-.52.22-.21.09-.3-.17-.13-.09-.6.05-.08.13-.12.08-.04.04 0 .05-.09-.04-.13-.08-.05-.08-.17 0 .04.08 0 .04-.09.09-.13 0-.09-.05-.3-.04-.21.05-.26.12-.08.04-.08-.08 0 0-.17 0-.09.04-.13.04-.09.04 0v-.09l-.08-.3q-.04-.2-.04-.38 0-.17.08-.25h.13v-.13q-.04-.13 0-.17.08-.09.08-.17 0-.09.05-.26v-.13l.04-.17q.21-.13.09-.17-.09-.04-.09-.25l.09-.43q.08-.26.12-.68v-.26q.17-.13.09-.13-.09 0-.04-.17.04 0 .08-.04l.09-.09v-.38l.12-.34.13-.13q.17-.6.22-1.24.08-.64.17-1.2.04.05.12.05h.13q.09-.13-.04-.13-.09 0-.09-.04 0-.09.13-.43.13-.38.22-.55.04-.26 0-.51t.04-.52q.21-.08.21-.2 0-.14.22.08-.05-.52.04-.9l.17-.72q.13-.35.21-.73.13-.38.13-.85.21.17.21-.13 0-.3.09-.3.08-.04.08.17.05.21.17.13.13-.09.09-.13 0-.08-.09-.17-.08-.13-.12-.26-.04-.13.04-.3.3.1.21-.08-.08-.21-.08-.43l.04-.04q.09-.08.09-.13 0-.21.04-.3l.13-.25q.04-.09 0-.13-.05-.09 0-.17l.17-.13q.12-.08.12-.17.05-.13-.04-.08-.08 0-.08-.05 0 .05.08-.21.04-.13.09-.21l.08-.05q-.04 0-.08-.08-.05-.13.04-.09.09 0 .09-.04.04-.17 0-.3-.05-.17.04-.3.04.05.13.05h.12q.09-.09.13-.35.04-.3.09-.38 0-.21.08-.34.13-.13.05-.34.17.08.2 0 .05-.09.05-.22.04-.12.04-.2.05-.1.26 0 0-.48.17-.6.17-.13 0-.48.17-.12.26-.6.12.13.17.4l.08.33.09.34q.04.13-.17.26-.09-.04-.09-.17.04-.17 0-.3-.13.09-.13.21 0 .09.05.22.08.08.12.21.09.13.05.26-.09-.09-.13-.17 0-.13-.13-.13-.08 0-.08.17 0 .13.08.08-.08.26 0 .3.04.13-.08.13-.13-.04-.17 0v.43q.04.3-.05.38l-.13.13q0 .04.05.08.04.05.04.13.04.09 0 .26h-.17q-.21 0-.09.13.09.12.17.08.09-.08.13-.21l.17-.26q.09-.13.22-.13-.09-.12-.22-.17-.08-.08-.04-.3.47.09.34-.04-.13-.13-.04-.47.21.13.21.43.26-.04.34-.56.13 0 .17.18.05.17-.04.34-.04.17-.13.25-.08.09-.2-.08 0 .21.16.25.21.05.13.34.04.22.21.3.22.09.09.43-.17-.26-.22-.21v.21q.05.13.09.38.09.22.09.35.2-.13.2-.26.05-.13-.03-.43.3.22.2.43-.03.21-.25.43-.25-.22-.38-.6-.09-.39-.34-.64-.39.25-.39.72.05.43.05.9.08 0 .08-.09.04-.12.04-.2.35-.05.22.16-.09.22-.09.3.05.17.13.3.13.13.13.43.25-.17.04-.43-.17-.26 0-.6.21-.04.21.09 0 .08-.08.08-.09.3.08.34.18.05.09.39.26-.04.17-.43-.04-.38.04-.6.22.05.17.3-.04.26.05.34.12.05.08-.3-.04-.38-.17-.46.09-.09.21-.13.13-.04.09-.26.17-.13.21-.08l.13.08-.08-.34q0-.21.17-.38 0-.05.17-.34.17-.35.13-.35l-.13-.04q.25-.51.55-.51-.21-.21-.04-.34.17-.17.13-.51.21.04.08.3-.08.2-.08.3.13.12.21-.18.04-.17.04-.34l.17.26q.13.13.09-.3-.04-.04-.09-.04-.04 0-.08-.13 0-.13.08-.56.13-.04.09.09 0 .08-.04.21v.26q.04.08.17.04v.38q0 .13-.05.35-.2-.17-.25-.05v.3q.04.17.04.39 0 .17-.08.17-.09-.09-.09-.22.04-.17-.3-.25.09.17-.04.25-.13.05-.09.17 0 .05.13.09.13.04.13.08.04.22-.04.39-.09.17.13.34-.18.38-.6.55.17.13.13.43 0 .3.12.47 0 .21-.12.34-.09.13-.22.26-.08.13-.13.3-.04.12.09.34-.17 0-.21-.09 0-.08-.13-.08-.04.25-.13.34-.08.08.21.21-.08.22-.17.13-.08-.13-.21-.17.21.17.13.51-.09.34.17.39-.09.12-.13.34 0 .17-.04.34t-.13.3q-.09.13-.26.12-.08.47-.04.86.04.34-.17.55.04 0-.04.13-.09.09-.09.04-.08.13 0 .17.13 0 .13.09 0 .13-.08.13h-.05q-.04.08 0 .5.05.44-.04.52h-.17v.17q0 .09-.04.13-.09.13-.05.13.09-.04.05.17 0 .04-.09.04-.04 0-.04.09 0 .21.04.42t.04.43q-.12-.04-.2.17-.1.17-.18.47-.04.3-.13.64l-.08.51q-.09.22-.22.73-.08.5-.04.98.21.17.34 0 .17-.17.3-.21.21-.05.34 0 .17 0 .39-.09.12-.09.25-.04.17.04.51-.05.13-.04.17-.12l.18-.17q.04-.05.12.04.09.04.09 0 .21-.21.68-.3.47-.09.9-.21l.04-.05.09-.04q.2-.04.3-.04.08 0 .2-.09.14-.08.4-.04.25.04.33-.04v-.17q.43-.09 1.03-.05.64 0 1.15.22.21.34.51.6.34.2.6.5-.04.22 0 .48t-.04.47q0 .04-.09.04-.04 0-.04.08 0 .13-.13.17-.09 0-.13.09-.04.09 0 .17.04.09 0 .13-.17.21-.47.42-.3.18-.51.39-.26.25-.51.55-.22.3-.34.39-.09.08-.26.08-.13-.04-.26.05-.08.04-.12.12-.04.08-.13.13l-.34.26q-.13.08-.26.3-.34 0-.6.12l-.47.3-.46.3q-.22.13-.6.13.08.13.13.3.08.13.2.25.1.09.27.17.2.09.3.18l.42.6.56.63q.04.05-.05.13-.04.09 0 .13.04.04.13.08.13.05.13.09.04.08 0 .17-.04.09 0 .13l.25.17q.09.08.05.21 0 .13.04.34.04.09.13.17.13.05.13.13.04.09-.05.3-.04.17.05.26.12.21.2.72.14.47.22.94.3-.13.47-.47.17-.34.6-.38.08-.34.34-.6.3-.3.51-.6.09-.08.09-.04.04.04.08-.09 0-.04.05-.12l.04-.17q.04-.05.13-.05.12-.04.12-.08.05-.09 0-.17 0-.09.05-.13.05-.04.13-.04.12 0 .17-.05.04-.04 0-.12-.04-.08 0-.13l.17-.13q.08-.09.25-.21.17-.17.17-.34 0-.13.13-.18.13-.08.21-.25 0-.09.09-.13.13-.08.13-.26 0-.17.13-.3.04-.04.12-.04.13-.04.13-.08.04-.04 0-.13t0-.13q.13-.08.26-.13t.21-.12q.04-.05 0-.13-.04-.13 0-.17.04-.05.13-.05.13-.04.13-.08.04-.04.04-.17t.09-.21q.3-.3.6-.52l.68-.42q.25 0 .34.17l.17.3q.08.17.3.17.2-.05.2.17.1.21 0 .38l-.16.26q-.04.08-.13.17-.08.04-.13.13-.04.04-.04.17.04.08 0 .08-.09.09-.21.3-.09.21-.22.43l-.08.21q0 .09-.09.17-.04.09-.17.09-.08 0-.13.04-.08.17-.12.34 0 .17-.05.34v.17l-.17.22q-.04.08-.13.17v.12q0 .05-.04.05v.08h-.13l-.17.39-.08.34-.3.21q-.13.21-.21.56-.09.3-.26.6-.09.16-.17.38-.04.17-.13.34l-.13.13q-.08.04-.12.12v.18q0 .08-.05.12-.21.17-.42.52-.22.34-.52.68l-.3.3q-.08 0-.38.3-.25.3-.3.34-.04.04-.17 0-.08-.05-.13 0-.08.08-.25.12h-.26q-.17 0-.38.09-.22.04-.39.09-.17 0-.5-.13-.14-.09-.35-.17-.21-.09-.3-.22-.17-.12-.42-.25-.26-.17-.47-.34-.13-.09-.22-.22-.04-.17-.13-.25-.12-.13-.3-.17-.16-.09-.25-.17-.26-.26-.43-.56-.12-.34-.42-.72-.09-.18-.17-.3l-.13-.34q-.04-.09-.17-.13-.09-.09-.09-.17-.04-.13-.04-.22 0-.12-.09-.21-.12-.47-.2-1.15-.1-.68-.3-1.32-.05-.05-.18-.13-.08-.13-.08-.17-.05-.22-.05-.3.05-.13-.04-.3l-.26-.43q-.6.05-1.02-.13-.43-.2-.9-.3-.08-.04-.08.1 0 .08-.04.16l-.17.26-.13.17q-.13.17-.09.25.09.09-.25.18.04.08.3.17-.22.3-.22.85 0 .51-.17.94 0 .04-.04.04t-.09.09q0 .34-.08.42-.09.05-.17.26.08-.09.17-.04.13.04.08.08-.17.09-.17.26.05.13 0 .34l-.08.13q-.05.04-.09.12 0 .18.09.26.08.04 0 .17-.05.26-.09.6 0 .3-.08.55 0 .05-.09.05-.04 0-.04.08-.04.04-.04.21.04.13 0 .18-.17.12-.22.55 0 .38-.13.73-.08.34-.2.98-.1.6-.26 1.1zm2.04-25.6q-.12.17-.25.25l-.17.17q-.09.05 0 .13.12.09.12.04.05-.2.05-.12 0 .08-.05.25l-.17.39v.17l-.08.12h-.09q-.04.13 0 .3.05.13-.04.26 0 .08-.13.17-.13.04-.13.13-.17.34-.08.42.13.05.04.3 0 .05-.04.05t-.09.04v.13q0 .12-.08.12-.04 0-.04.05-.09.25-.13.6 0 .3-.22.5-.04-.12-.12-.16-.09-.05-.17-.13-.05.21.08.3.13.04.21.17-.04.08-.04.13.04.04.04.12l-.08.09q-.04.04-.09.04-.08.17-.12.43 0 .25-.05.47-.04.17-.08.25-.04.05-.17-.17-.05.3.04.43t0 .43q-.3-.09-.26.2.05.3-.04.52.17.04.3.04.17-.04.21.13-.12.04-.12.09h.08q.09-.05.13-.09.08-.04.08-.13-.17-.04-.17-.2 0-.18-.08-.27.13.05.17-.04.04-.08.04-.17.04-.08.04-.17.05-.13.17-.13.05-.17 0-.34 0-.21.05-.38h.17q.08-.09 0-.26-.04-.21 0-.3 0-.08.13-.13.17-.08.17-.17.08-.25.04-.47 0-.25.08-.5.09-.05.18-.14.12-.08.17-.17.08-.17.04-.38 0-.21.08-.43.05 0 .09-.04.08 0 .08-.08.09-.09.05-.09 0-.13.04-.13t.09-.04q.08-.34.12-.73.04-.39.3-.68 0 .17.13.13-.13-.34-.04-.64.08-.34.38-.47.04.13 0 .21-.04.09-.13.17-.04.05-.04.09 0 .04.17.08.17-.3.43-.12.3.12.47-.09-.22-.04-.09-.13.13-.08.34 0 .09-.72-.55-.72.08-.3-.09-.3-.12.13-.12.17l.08.09q.09 0 .13.08.04.04 0 .21-.13-.04-.3-.04-.13 0-.17-.17.08-.21.17-.3.09-.13-.09-.34.22 0 .35-.3-.26.09-.22-.13.05-.2 0-.42.17.04.17-.05.05-.08 0-.25 0-.17-.04-.34 0-.22.09-.39-.22-.08-.26.05-.04.08-.04.25v.3q0 .13-.13.09-.04-.09-.04-.17 0-.09-.09-.09-.08.34.04.47.17.08.09.43-.13-.17-.21-.17-.05 0-.09.08l-.04.17q0 .09-.13.13-.09-.09-.09-.21 0-.13-.08-.22l-.09.26q0 .13-.12.13v-.17q0-.09-.09-.09-.08.26-.04.47.04.21.25.26.05-.13.13-.22.09-.08.13.09-.08 0-.08.08v.22q0 .08-.09.17-.04.08-.21.04 0-.13.08-.17.09-.04-.08-.13-.22.21-.13.34.13.13.08.39zm3.42-7.47q.42-.13.72 0 .34.09.86-.04 0-.22-.09-.26l-.21-.08q.04-.13.08-.13.09 0 .13.08.09.05.13.09.08.04.17 0 0 .25-.13.38-.08.13-.21.22l-.3.2q-.13.1-.17.3-.09.18-.09.14v-.13q0-.13.05-.26t.08-.17q-.47-.08-.77.09-.25.12-.08.6-.09-.05-.13-.26-.04-.22-.09.21-.2.26-.12-.08l.17-.52q-.34-.12-.34.13.04.26 0 .47-.09.17-.13.04v-.34q-.13.05-.13.22v.34q-.13.13-.13.21.04.04.09.21.12 0 .12-.08 0-.13.05-.21.08-.13.08.04 0 .13-.04.34-.04.21-.13.47-.08.21-.13.3.22-.13.22-.09l-.05.09v.13q.05.08.26.08-.04.21-.17.34-.13.09-.17.3-.13-.08-.04-.21.12-.13.04-.3 0-.21-.17-.47-.17-.3.08-.56-.04-.34-.2-.12-.14.21-.3.08.08-.21-.18-.51-.21-.3-.17-.51-.13-.13-.13-.26l.09-.21q.04-.09 0-.13-.04-.04-.3-.04 0-.17.08-.22.13-.04.26-.04h.26q.13 0 .21-.08.13-.34 0-.47-.09-.17-.09-.39.26.26.56.22.3-.05.38-.43.26.04.09.26-.13.17-.21.12.08.22.12.47.05.22.22.43zm-2.9 10.11q-.13.09-.22.13-.08.04-.17.13.17.04.17.25.04.17.13.3-.21-.17-.3-.08-.04.08-.04.21 0-.04.13.13.12.17.08.17.09.04.17-.04.09-.13.13.04-.17 0-.21.13 0 .13-.13.17 0-.09-.04-.09 0-.04-.09.09.17.08.09.34-.05.21-.09.26l-.17-.13q-.04-.09-.21-.05.13.26-.09.56-.17.26.04.3 0-.17.26-.13.09-.04.09-.21 0-.17.08-.26.04 0 .13.04.13.05.13 0 .08-.12 0-.42-.05-.3.3-.26 0 .09.04.17.04.04.04.13-.21 0-.25.26 0 .25-.26.25-.13.17 0 .34.17.13.08.26-.08.08-.2.04-.1-.04-.1.09 0 .04.13.08.13 0 .17.04.05.13-.04.13-.08 0-.13.05-.08.17.17.3.26.12.26-.13-.3-.09-.13-.3.17-.22.13-.26 0-.04-.13-.04-.08 0 0-.13.05-.04.13-.04.13 0 .13-.09.08-.17 0-.25-.09-.13-.04-.22l.08-.25q.04-.05.13-.05.13 0 .13-.08.08-.34.08-.47 0-.13.09-.26t.17-.5q.08-.4-.13-.56 0 .3-.26.47-.17-.17-.04-.3.13-.13-.3-.13.09-.26-.12-.51-.18-.3-.26-.09.13.09.13.26.04.13.13.21zm-3.03 14.5q0-.03.04-.03t.08-.05q.17-.55.09-.8-.04-.26.08-.35.09-.08-.04-.13-.08-.08-.08-.04 0-.21.08-.3.13-.13-.08-.3.21 0 .21-.38.43 0 .55-.26.09-.17-.08-.34-.13-.17-.17.04.21 0 .04.22-.13.17-.21.21 0-.6.08-1.07.08-.47.17-.93-.12.04-.2.04-.05 0 .08.13 0 .04-.09.12-.09.08-.08.13l-.09.09q-.04.04-.09.04 0 .17.05.21.08 0-.05.09-.04.04-.04.17.04.09.04.13h-.12q-.05.04 0 .13.08.08.08.04l-.08.13q-.05 0-.05.08-.04.13-.04.3.04.13 0 .26 0 .17-.04.21 0 .04-.09.21l-.21 1.28q-.09.47-.13.9 0 .43-.08.77.3.08.42 0t.13-.26q0-.21-.04-.38-.04-.22-.04-.3zm-.47 1.12q-.05.08-.09.21 0 .09-.08.09.08.25 0 .5-.05.26-.05.48 0 .21.05.21t-.05.09q-.04.04 0 .17.09.13.13.13.09.08.39.17.2-.09.04-.3-.17-.22-.17-.43 0 .04.04 0l.13-.13q.04-.21-.09-.25l-.17-.17h.39q-.13-.17-.09-.26.04-.13.09-.21l.12-.22q.05-.08-.08-.21-.09.34-.21.26-.09-.09-.3-.13zm-.73-.73q0 .05-.08.13-.05.04-.05 0-.04.34.09.38.13.05-.09.13-.08.09-.08.39l.04.38q-.04.09-.13.13-.04.04-.04.13t.09.12q.08 0 0 .18l-.13.12q-.05.09-.05.17 0 .05-.08.13.13 0 .26.04h.3v-.6q.04-.3.04-.55-.05-.17.04-.17.13-.04.17-.13.04-.12-.04-.25-.05-.13-.05-.17 0-.05.13 0 .17 0 .13-.09-.21.05-.3-.04l-.08-.26v-.25q0-.17-.09-.22v.17q.04.05 0 .13zm3.67-9.94q-.17-.04-.08-.17l.12-.26q.13-.2.09-.38-.04-.17.04-.43-.13-.04-.13-.2.05-.18-.17-.14-.21.3-.21.77.04.47-.17.77.08-.04.17.04.08.04.13.13.08.04.13.04t.08-.17zm1.7-5.59q.1.09-.04.17-.08.09-.08.13-.04.3.17.43.26.13-.04.13-.22-.05-.17.25.04.26-.05.43.22.17.35.13.17-.05-.05.3.22.04.3-.05.09-.08.04-.21 0-.13-.12-.26-.09-.13-.22-.17 0 .09-.08.09-.05 0-.05-.13.35-.13.3-.56-.04-.46-.25-.68zm1.03-1.36q-.08 0-.13.13-.04.08.09.12.08-.08.08-.17 0-.08.13-.08-.08-.51-.04-.69.08-.17-.04-.34-.13.22-.17.13v-.25q0-.18-.05-.3t-.21 0q-.09.5.09.8.17.3.25.65zm-5.25 7.08q.26.21.26.6-.13 0-.13.08 0 .05.04.13.05.04 0 .09 0 .04-.2-.05-.1.3.08.34.17.05.17.26v.34q.04.17.12-.04-.08-.34-.04-.56.04-.2-.17-.08.34-.34.26-1.07-.09-.04-.17-.04-.05 0-.09-.09-.08.09-.13.09zm4.53-13.27q.08.09.21.13.17.04.21-.09.22.09.05.3-.13.17-.35.09-.12 0-.12.17v.25l-.22-.12q-.13-.09-.08-.17.08-.22.21-.18.17 0 .09-.38zm-.47 3.97q-.09.43-.05.77.09.3.39.38.04-.13.08-.17.05-.09-.08 0-.13-.13-.17-.26v-.3q.04-.12 0-.2 0-.14-.17-.22zm-2.56 10.67q.12-.22.08-.52 0-.3-.25-.5.04.5-.05.72-.04.17.22.3zm.6-.52q.08-.25.16-.42.09-.22-.25-.3-.17.13-.21.43 0 .25.3.3zm-1.29 1.8q.05-.05.13-.22l.13-.34q.04-.17-.04-.25-.05-.09-.22.08.17.04.09.13l-.13.21q-.08.09-.13.22-.04.12.17.17zm6.92-16.73q.12.13.04.26l-.13.47q-.13-.09-.13-.3 0-.26-.04-.47.09 0 .09.17.17.04.17-.13zm-5.42 10.8q.13.08.21 0 .09-.09.09-.26.04-.17 0-.3-.04-.13-.09-.13-.17.22-.13.3.09.04-.08.39zm1.15-2.35q.13.08.08.17 0 .08-.04.17v.17q0 .04.17.09.13-.22 0-.39-.08-.17-.08-.34h.08q.13-.08.13-.17.04-.13-.08 0-.18.09-.26.3zm1.8-5.93q.2.17.2.6-.38-.05-.34-.18.05-.12.13-.42zm-1.97 12.07q-.17-.08-.09-.17.13-.08.09-.25-.21-.13-.26.04-.04.13-.04.3.04.17.13.25.08.09.17-.17zm.64-8.27q.17.08.13.17 0 .04-.09.12l-.13.13q-.04.09-.04.17-.08-.04-.08-.17t-.13-.17q0-.17.17-.08.17.04.17-.17zm1.07-5.76.12-.3q.09-.26-.12-.34l-.18.34q-.08.21.18.3zm2.9-1.84q.21.09.34.26.13.13-.09.34-.17-.13-.25-.6zM152 132.2q0 .38.26.42-.09-.3.04-.34.13-.08.13-.34l-.17-.13q-.09-.04.04.09 0 .42-.3.3zm.94.64q-.17-.05-.17-.22 0-.17-.08-.21-.09-.09-.22 0-.13.08.05.13.08 0 .08.13.04.12.09.2.04.1.08.14.04.04.17-.17zm6.15-16.77q.17.08.3.25.17.13-.05.3-.13 0-.13-.3-.08-.04-.17.13-.12-.04-.04-.13.13-.08.09-.25zm-5 16.51q.05-.21 0-.34-.04-.17-.17-.21l-.08.42q-.04.22.25.13zm-2 5.89q-.09-.6-.34-.77 0 .3.08.47.13.13.26.3zm2.73-16.26q-.09.09-.04.34.04.26.12.22.22-.13.09-.39-.09-.25-.17-.17zm.77 7.47q.04-.17.25-.26.22-.08-.21-.12-.21.3-.17.5.08.18.13-.12zm-3.07.38q-.13-.04-.13-.17t-.09-.17q-.17.22-.04.43.17.21.26-.09zm3.4-4.1q.1-.25.1.1.04.3 0 .33 0 .22-.1.13-.08-.13 0-.55zm1.2-2.6q.13.09.17 0 .09-.08.09-.2 0-.14-.04-.27 0-.12-.09-.12.04.42-.13.6zm-2.39 5.12h.3v-.25h-.3zm2.78-3.37q.08-.08.04-.34-.04-.3-.26.04.09-.08.13.18.04.2.09.12zm-.47-5.33q-.22-.3-.04-.04.2.25.3.34-.05.13-.13.13-.05-.05 0-.13-.09-.04-.17.13-.18-.05-.05-.13.13-.09.09-.3zm.72-1.54q0 .22-.17.26.05.43-.08.43-.09-.05 0-.43.08-.04.08-.13.05-.13.17-.13zm-4.22 15.32q.08-.08 0-.34-.04-.3-.26.04.09-.08.13.13.04.21.13.17zm.08 1.03q.05-.05.05-.13 0-.13-.05-.22-.04-.12-.12-.12-.05 0-.13.17.08-.09.13.12.04.18.12.18zm1.88-15.07h.26v-.25h-.26zm2.86-.38q0 .04-.04-.04-.04-.09.04-.09-.04 0 .04.13.09.09.13.09 0 .08-.13.17-.08.08-.17 0 0-.05.05-.09.08-.08.08-.17zm-2.18 9.6q-.3.26-.12.21.17-.04.21-.34-.26-.21-.3-.13 0 .09.21.26zm-1.49.64q.04-.17 0-.34t-.13.04q-.04.17 0 .34.09.13.13-.04zm2.69-13.44q.04-.17-.13-.13-.17.05-.17.13.04-.04.13 0zm8.53 24.2q0-.05-.17.12.04-.04.09-.04.04 0 .08-.09zm2.73-.1q-.04.05-.04.1 0-.05.04-.1z"/>
</svg>