<?xml version="1.0" encoding="UTF-8"?>
<svg viewBox="0 0 18.861 18.861" xmlns="http://www.w3.org/2000/svg">
<defs>
<linearGradient id="a" x1="250" x2="250" y1="142.86" y2="357.14" gradientTransform="matrix(.088018 0 0 .088018 -12.574 -12.574)" gradientUnits="userSpaceOnUse">
<stop stop-color="rgb(40% 80% 80%)" offset="0"/>
<stop stop-color="rgb(0% 47.889% 48.273%)" offset="1"/>
</linearGradient>
</defs>
<path d="m18.861 9.43c0 5.209-4.222 9.431-9.431 9.431-5.208 0-9.43-4.222-9.43-9.431 0-5.208 4.222-9.43 9.43-9.43 5.209 0 9.431 4.222 9.431 9.43z" fill="url(#a)" stroke-width="5px"/>
<path d="m4.503 13.855h0.06l0.101 0.161-0.161 0.02-0.02 0.161h-0.041l0.121 0.14-0.098-0.113 0.078 0.173-0.04 0.02 0.04 0.101 0.281 0.221c0.241 0.2 0.923 0.442 1.244 0.442l0.442 0.079h0.201l0.481-0.06-0.02-0.06 0.161-0.1c0.16 0.321 0.521 0.381 0.843 0.461l0.261-0.1-0.081-0.02c1.063-0.321 2.167-0.583 3.211-0.964h-0.08l0.181-0.1-0.261 0.061 0.08-0.061h-0.08l0.02-0.02-0.101 0.02 0.081-0.04-0.322 0.06c0.02-0.02 0.041-0.02 0.041-0.02v-0.02h-0.101l0.181-0.08-0.281 0.041c0.18-0.061 0.361-0.061 0.541-0.122l0.041 0.02 0.22-0.079 0.041 0.019s0.201-0.099 0.16-0.099c-0.08 0-0.08-0.181-0.16-0.181l-0.021-0.061h0.121l-0.02-0.08 0.08 0.04 0.021-0.04-0.161-0.14 0.02-0.041-0.241-0.16-0.101-0.04 0.121-0.14-0.121-0.322-0.2-0.161-0.06 0.041c-0.221-0.061-0.442-0.081-0.663-0.1l-0.1-0.021h-1.144l0.101-0.04c-0.301 0.02-0.682 0.1-0.682 0.1-0.322 0.101-0.663 0.02-0.984 0.101l0.02-0.401s0.061-0.763 0.1-1.144v0.14l-0.02-1.084c-0.019-0.24-0.04-0.501-0.04-0.762 0-0.763 0.081-1.546 0.081-2.308 0-1.004 0-2.408-0.442-3.331l0.04 0.06-0.201-0.502-0.02 0.12-0.16 0.121-0.101-0.121 0.101-0.12-0.161-0.06-0.077 0.033-0.063 0.047-0.01-0.033-0.051 0.013v-0.06l-0.12 0.04-0.261 0.422c-0.1 0.601-0.461 1.123-0.642 1.705l0.02 0.04c-0.06 0.642-0.22 1.284-0.22 1.927l0.08-0.02 0.08 0.261c-0.382 0.3-0.582 0.803-0.582 1.265 0 0.159 0.1 0.32 0.1 0.32 0.121 1.304 0.202 2.609 0.402 3.893-0.402 0.161-0.763 0.342-1.084 0.642zm6.422 0.403h0.02l-0.161 0.059 0.141-0.059zm-3.452-10.336 0.041 0.1-0.021-0.02-0.02-0.08zm1.43 4.937-7e-3 -0.015v-0.08c0-0.075 7e-3 -0.141 7e-3 -0.215 0-0.022-0.015-0.03-0.015-0.03-0.014-0.266 0.015-0.806-0.147-1.02l-0.015-0.022-7e-3 0.022-0.037 7e-3 7e-3 -0.037-0.037-0.022-0.037 0.022 0.014-0.022-0.051 0.015v-7e-3c-0.096 0.089-0.17 0.199-0.214 0.318l7e-3 7e-3c-0.022 0.044-0.036 0.104-0.036 0.155v0.022l-8e-3 0.133h0.022l7e-3 0.045c-0.052 0.059-0.118 0.125-0.118 0.207 0 0.015 8e-3 0.044 0.015 0.059l7e-3 -8e-3c0.133 0.259 0.037 0.585 0.215 0.829l-7e-3 -0.022 0.021 0.014-7e-3 -0.036 0.015 0.014v-0.014l8e-3 6e-3c0-6e-3 -8e-3 -6e-3 -8e-3 -0.014l8e-3 8e-3 -0.016-0.082 0.016 0.015-8e-3 -0.088c0.022 0.102 0.088 0.273 0.088 0.273l0.067 0.014c0.03-0.022 0.074-0.066 0.074-0.11l7e-3 -0.022h0.015l0.023 0.036 0.022-0.022c0.103 0 0.11-0.222 0.11-0.295v-0.038zm-0.517-2.129h-7e-3c-0.037 0.037-0.037 0.111-0.037 0.163 0 0.058 0 0.111 0.014 0.17v-8e-3l0.037 0.059-7e-3 0.023 0.022 0.029-0.015-0.014 0.015 0.029 0.022 0.015h-7e-3c0.029 0.059 0.118 0.133 0.184 0.14l0.075-0.036-0.015-0.045 0.096 0.067c0.059-0.097 0.052-0.214 0.067-0.325l-8e-3 -0.015-0.059 6e-3v-0.095l-0.258-0.215h-0.053l8e-3 8e-3 -0.052 0.015-0.022 0.029zm0.458 1.176v-0.022 0.022zm0-0.03c-7e-3 0-7e-3 -7e-3 -7e-3 -0.014 7e-3 0 7e-3 0 7e-3 0.014zm-0.058-0.983h-8e-3l0.015 0.022c-7e-3 -8e-3 -7e-3 -0.015-7e-3 -0.022zm-0.371 0.288v0.015-0.015zm0.192-0.429 8e-3 8e-3 -8e-3 -8e-3zm2.306 0.267h7e-3l-7e-3 -0.037-8e-3 6e-3v-0.021c0-0.14-0.229-0.229-0.348-0.229-0.325 0-0.628 0.229-0.754 0.487-7e-3 -0.199-0.133-0.376-0.133-0.584l-0.022-0.022-0.051 0.059-0.031-0.03 0.031-0.029-0.045-0.015v-0.014l-0.045 0.036 0.038-0.051 7e-3 -0.022-0.059 0.066v-7e-3c-8e-3 0-0.022 0.014-0.03 0.014v-7e-3c-0.2 0.252-0.295 0.577-0.295 0.895l0.022 7e-3 0.014 0.06c-0.066 0.051-0.147 0.177-0.147 0.288 0 0.022 7e-3 0.051 0.014 0.073l8e-3 -7e-3c0.096 0.318 0.044 0.909 0.2 1.161v-0.029l7e-3 0.036v-7e-3 -0.059l0.015 0.03v-0.022l7e-3 7e-3 8e-3 -0.015-8e-3 -0.104 8e-3 0.015v-0.074c0.044 0.089 0.036 0.193 0.051 0.289l-7e-3 0.015 0.022 0.066 0.023 0.015v-0.037l0.044-0.03 0.029 0.067 0.067-0.089 7e-3 8e-3 0.037-0.082h0.022l8e-3 0.059 0.103-0.044 0.052-0.074-0.015-0.014c0.066-0.119 0.097-0.688 0.097-0.77 0-0.11-0.016-0.221-0.016-0.333 0.133-0.177 0.222-0.348 0.304-0.554h-0.015v-0.037c0.066-0.015 0.103-0.082 0.162-0.096l0.015-0.037h-7e-3c0.015-0.059 0.207-0.133 0.266-0.141l-8e-3 -0.014 0.023 0.014 0.037 0.111c-0.133 0.289-0.155 0.259-0.17 0.592l0.015-7e-3 0.014 0.051c-0.052 0.067-0.133 0.118-0.133 0.215l8e-3 0.066 7e-3 -0.015c0.059 0.303 0.073 0.621 0.14 0.924l0.037 0.031-7e-3 -0.053h7e-3l-7e-3 -0.037 0.015 0.03-0.015-0.104 7e-3 7e-3v-0.022l0.015 0.053v-0.038 0.03c0 0.111 0.074 0.185 0.177 0.214l-0.014-0.029 0.021-0.029 0.031 0.014-0.022-0.036 0.014-0.023v-0.037l8e-3 0.022-8e-3 -0.037 0.141-0.059c7e-3 -0.052 0.022-0.103 0.022-0.156v-0.029l-7e-3 8e-3c0.022-0.311 0.044-0.629 0.044-0.939 0-0.252-8e-3 -0.503-0.044-0.754zm-0.378 1.759c8e-3 0.015 0.015 0.037 0.015 0.052v0.014l-0.015-0.066zm0.155 0.347-0.051-0.029c0.015 0.015 0.029 0.022 0.051 0.029zm0.252-1.633h7e-3c0 7e-3 0 7e-3 -7e-3 0zm-0.68-0.237c-8e-3 7e-3 -8e-3 7e-3 -0.015 7e-3l0.015-7e-3zm0.665 1.346c0 6e-3 -7e-3 6e-3 -7e-3 0.015l7e-3 -0.015zm-0.347-1.546h-0.015 0.015zm0.118 1.99 0.015 7e-3 -0.015-7e-3zm-0.163-0.015 8e-3 0.022-8e-3 -0.022zm0.414-1.502-7e-3 8e-3 7e-3 -8e-3zm-0.17 1.457c0-7e-3 -7e-3 -7e-3 -7e-3 -0.015 0 8e-3 0 8e-3 7e-3 0.015zm2.1-0.458 7e-3 7e-3c-0.162-0.229-0.332-0.451-0.54-0.643l0.156-0.185v7e-3c0.163-0.258 0.318-0.561 0.318-0.879 0-0.2-0.162-0.37-0.363-0.37-0.169 0-0.325 0.126-0.414 0.259 0-0.289-0.022-0.57-0.037-0.858l-7e-3 0.015 7e-3 -0.015c0-0.23-0.029-0.732-0.162-0.917l0.015-0.014-0.03-0.045-0.051 0.126-0.045-0.067 0.029-0.052-0.051-0.022 7e-3 -0.022-0.059 0.067 0.022-0.074-0.036 0.059-8e-3 -0.023-0.037 0.023c-0.2 0.517-0.362 1.057-0.362 1.612l0.029-0.015 0.022 0.103c-0.125 0.134-0.199 0.318-0.199 0.496l0.015 0.14 0.014-0.022c0.06 0.688-0.036 1.389 0.141 2.063v-0.044l7e-3 0.059 7e-3 -0.015 0.015 0.074-0.015-0.177 0.015 0.059v-0.053l8e-3 0.016v-0.067l0.014 0.051v-0.199 0.015-0.052l0.023 0.111-0.015-0.266c8e-3 0.148 0.03 0.68 0.112 0.783l-9e-3 -0.029 0.03-0.066 0.023 0.037v-0.045l7e-3 0.015-0.015-0.045h0.022v0.067l0.022-0.014h8e-3c0 7e-3 -0.015 0.014-0.015 0.044l0.015 0.022c0.029-0.044 0.066-0.104 0.066-0.156l0.015 0.022 0.023-0.103v0.067l0.014-0.119h0.03l0.029 0.037-0.015 0.06 0.141-0.089 0.029-0.097-7e-3 8e-3 0.015-0.118 0.014-0.015c0.015-0.185 0.067-0.37 0.075-0.554l-8e-3 0.022 0.022-0.2 0.052 0.059 7e-3 -0.015 0.045 0.015c-7e-3 0.037-0.023 0.074-0.023 0.111s0.031 0.089 0.038 0.126c0.207 0.081 0.458 0.458 0.599 0.636l-0.022-0.045 0.022 0.015-8e-3 -0.015h8e-3l-8e-3 -0.022 0.015 0.015-0.037-0.06v-0.022c0.044 0.075 0.088 0.156 0.147 0.215l0.023-0.059 0.044 0.036 0.059-0.125 7e-3 0.03v-0.052l0.045 0.014 0.089-0.103-8e-3 -0.022c-0.037-0.185-0.11-0.355-0.177-0.532zm-0.754-1.375v-8e-3c0.088-0.103 0.163-0.229 0.274-0.317l-8e-3 -9e-3 0.03-0.029h0.022l0.022 0.038s-0.022 0.051-0.022 0.08c0 0.201-0.2 0.674-0.34 0.814l-0.089-0.06v-0.199c0-0.051 7e-3 -0.111 7e-3 -0.162l0.104-0.148zm-0.783 2.291c0.014 0.075 0.029 0.148 0.073 0.208v-0.037c-0.029-0.067-0.051-0.111-0.073-0.171zm0.672-1.966-8e-3 0.133c0-0.044 0-0.089 8e-3 -0.133zm0.613 1.59c0.023 0.029 0.045 0.058 0.06 0.088l-0.06-0.088zm-0.628-3.106c0-7e-3 -7e-3 -0.014-7e-3 -0.022 0-7e-3 7e-3 -0.015 7e-3 -0.023v0.045zm-0.354 3.482v-0.066c0 0.015-8e-3 0.022-8e-3 0.037 0 7e-3 8e-3 0.022 8e-3 0.029zm1.108-1.094 0.023 0.03-0.023-0.03zm0.038-1.286-0.038 0.058c0.023-0.013 0.03-0.051 0.038-0.058zm-1.347 2.469 8e-3 0.022-8e-3 -0.022zm1.347-0.162v-0.015h-0.023c8e-3 7e-3 0.015 7e-3 0.023 0.015zm-0.858-0.754c0 0.014 0 0.029-7e-3 0.044l7e-3 -0.044zm0.864-1.583-6e-3 0.03 6e-3 -0.03zm-0.946 2.137v0.014-0.014zm0.925-2.049-8e-3 0.023 8e-3 -0.023zm-0.629 0.622c7e-3 0 7e-3 -7e-3 0.015-7e-3 0 7e-3 0 7e-3 -0.015 7e-3zm0.821 0.976-7e-3 8e-3 7e-3 -8e-3zm-0.281 0.554-7e-3 -0.014c0 7e-3 0 7e-3 7e-3 0.014zm-2.897 1.997c0.193-0.082 0.29-0.311 0.29-0.311 0.044-0.067-0.06-0.236-0.06-0.236l-0.066-8e-3 -0.097 0.067 8e-3 -0.318c7e-3 -0.355-0.067-0.835-0.518-0.835-0.673 0-0.614 0.569-0.762 0.694h-0.014c-0.134 0.155-0.215 0.333-0.281 0.525l0.014-0.029c-0.014 0.243-0.066 0.48-0.066 0.725 0 0.413 0.289 0.768 0.717 0.768 0.185 0 0.362-0.089 0.481-0.237l-0.089 0.053-0.015 7e-3 7e-3 -7e-3 -0.066 0.036 0.037-0.029c-0.066 0.044-0.133 0.081-0.214 0.096l0.015-0.015-0.066 0.015 0.021-8e-3 -0.126 8e-3c0.282-0.096 0.511-0.251 0.702-0.488h-7e-3c0.082-0.148 0.126-0.311 0.155-0.473zm-0.827 0.599-0.075-0.082 0.023 0.015-0.023-0.022c-7e-3 -0.03-0.022-0.052-0.022-0.081v-0.119c0-0.014 8e-3 -0.036 8e-3 -0.052v0.038c7e-3 -0.097 0.045-0.444 0.074-0.511 0 0.089 0.104 0.163 0.17 0.215l-0.022-0.037c0.066 0.044 0.148 0.074 0.221 0.103v0.023c0 0.154-0.051 0.466-0.244 0.495l-0.015 0.015h-0.095zm0.384-1.804c0.074 0 0.162 0.229 0.162 0.295 0 0.141-0.066 0.237-0.066 0.37 0 0.022 0 0.045 8e-3 0.066-0.03 0-0.059 0.038-0.068 0.067-0.073-0.17-0.139-0.347-0.184-0.532 0.03-0.067 0.096-0.222 0.148-0.266zm-0.125 1.76 0.044-0.067v7e-3l7e-3 -0.022-7e-3 0.044 0.015-0.015-0.059 0.082-0.03-7e-3 0.03-0.022zm-0.385 0.398 0.103 8e-3 -0.103-8e-3zm0.695-0.325-0.029 0.037 0.021-0.03 8e-3 -7e-3zm-0.074 0.133-0.022 0.03c0.015-8e-3 0.022-0.015 0.022-0.03zm-0.119-1.973-0.014-9e-3 0.014 9e-3zm-0.42 1.13c0 8e-3 0 0.022-8e-3 0.03l8e-3 -0.03zm0.768 0.458-7e-3 0.023 7e-3 -0.023zm0.163-1.145h7e-3 -7e-3zm-0.739 1.708c-8e-3 7e-3 -0.015 7e-3 -0.022 7e-3l0.022-7e-3zm-0.178-0.37c0-8e-3 -7e-3 -8e-3 -7e-3 -0.014l7e-3 0.014zm0.437 0.273c-8e-3 8e-3 -0.015 8e-3 -0.023 0.016l0.023-0.016zm-0.451-0.295-8e-3 -7e-3 8e-3 7e-3zm0.17 0.399c-8e-3 7e-3 -0.016 7e-3 -0.023 7e-3l0.023-7e-3zm0.117-0.391c0-8e-3 0-8e-3 8e-3 -0.015l-8e-3 0.015zm2.269-0.555c0.193-0.082 0.317-0.244 0.407-0.429l-0.245-0.126-0.095 0.067 7e-3 -0.318c7e-3 -0.355-0.067-0.835-0.518-0.835-0.672 0-0.613 0.569-0.761 0.694h-0.015c-0.133 0.155-0.215 0.333-0.281 0.525 0 0-0.051 0.451-0.051 0.696 0 0.413 0.287 0.768 0.717 0.768 0.184 0 0.362-0.089 0.48-0.237l-0.089 0.053-0.015 7e-3 8e-3 -7e-3 -0.066 0.036 0.036-0.029c-0.067 0.044-0.133 0.081-0.215 0.096l0.015-0.015-0.066 0.015 0.022-8e-3 -0.126 8e-3c0.281-0.096 0.511-0.251 0.703-0.488h-8e-3c0.082-0.148 0.126-0.311 0.156-0.473zm-0.828 0.599-0.074-0.082 0.022 0.015-0.022-0.022c-8e-3 -0.03-0.022-0.052-0.022-0.081v-0.119c0-0.014 7e-3 -0.036 7e-3 -0.052v0.038c7e-3 -0.097 0.044-0.444 0.075-0.511 0 0.089 0.102 0.163 0.169 0.215l-0.023-0.037c0.068 0.044 0.148 0.074 0.223 0.103v0.023c0 0.154-0.052 0.466-0.245 0.495l-0.014 0.015h-0.096zm0.384-1.804c0.074 0 0.163 0.229 0.163 0.295 0 0.141-0.066 0.237-0.066 0.37 0 0.022 0 0.045 7e-3 0.066-0.03 0-0.059 0.038-0.067 0.067-0.074-0.17-0.141-0.347-0.185-0.532 0.03-0.067 0.097-0.222 0.148-0.266zm-0.126 1.76 0.045-0.067v7e-3l8e-3 -0.022-8e-3 0.044 0.015-0.015-0.06 0.082-0.029-7e-3 0.029-0.022zm-0.384 0.398 0.103 8e-3 -0.103-8e-3zm0.696-0.325-0.031 0.037 0.022-0.03 9e-3 -7e-3zm-0.075 0.133-0.022 0.03c0.015-8e-3 0.022-0.015 0.022-0.03zm-0.118-1.973-0.015-9e-3 0.015 9e-3zm-0.089 0.42v0.015c-8e-3 -7e-3 -8e-3 -7e-3 0-0.015zm-0.333 0.71c0 8e-3 0 0.022-7e-3 0.03l7e-3 -0.03zm0.341-0.665c-8e-3 -7e-3 -8e-3 -0.014-8e-3 -0.022 8e-3 8e-3 8e-3 0.015 8e-3 0.022zm0.428 1.123-7e-3 0.023 7e-3 -0.023zm0.163-1.145h8e-3 -8e-3zm-0.74 1.708c-7e-3 7e-3 -0.015 7e-3 -0.021 7e-3l0.021-7e-3zm-0.177-0.37c0-8e-3 -7e-3 -8e-3 -7e-3 -0.014l7e-3 0.014zm0.436 0.273c-7e-3 8e-3 -0.015 8e-3 -0.022 0.016l0.022-0.016zm-0.451-0.295-7e-3 -7e-3 7e-3 7e-3zm0.171 0.399c-7e-3 7e-3 -0.016 7e-3 -0.023 7e-3l0.023-7e-3zm0.118-0.391c0-8e-3 0-8e-3 7e-3 -0.015l-7e-3 0.015zm0.94 0.073 0.037 0.059-0.022-0.147c0.022 0.081 0.029 0.162 0.044 0.243l-8e-3 0.015 0.03 0.082-7e-3 7e-3 0.044 0.081 7e-3 -0.044 0.023-8e-3 0.014 0.015v-0.022l8e-3 7e-3 -8e-3 -0.029 8e-3 0.037 0.037 0.029 0.067-0.088 6e-3 7e-3 0.022-0.052v0.038l0.016-0.067h0.022l0.022 0.044 0.104-0.052h0.022l0.029-0.058-0.015-0.015c0.037-0.067 0.022-0.141 0.045-0.215l0.014-0.044-7e-3 7e-3v-0.133l0.015 7e-3c0-0.074 7e-3 -0.155 0.03-0.229v0.03c6e-3 -0.104 0.014-0.2 0.014-0.303l-8e-3 0.081c0-0.237 0.031-0.481 0.193-0.665l-0.015-7e-3 0.03-0.053c0.073-0.022 0.148-0.073 0.192-0.133 0.037 0.111 0.045 0.222 0.045 0.341v0.17c0 0.118 7e-3 0.236 0.029 0.347v-0.03l8e-3 0.045v-0.015l7e-3 0.045-7e-3 -0.104 7e-3 0.029v-0.058l7e-3 0.029-7e-3 -0.118 7e-3 7e-3v-0.029c0.015 0.125 8e-3 0.244 0.03 0.369l0.014-0.03 0.031 0.045 0.021-0.059v7e-3l8e-3 -0.044 7e-3 7e-3 0.192-0.184 0.052-0.06 0.037-0.059c0.044-0.045 0.074-0.104 0.103-0.155l-7e-3 -7e-3c0.045-0.053 0.104-0.097 0.163-0.134l0.178-0.147-8e-3 0.066 0.015-0.037c-0.052 0.473-0.104 0.946-0.104 1.42l8e-3 0.059 7e-3 -0.015v0.051l0.015-0.118v0.038l0.022-0.06v0.029l0.014-0.139 8e-3 0.022 7e-3 -0.045v0.081l0.016-0.058c-8e-3 0.102-0.045 0.206-0.045 0.317 0 0.037 7e-3 0.074 0.014 0.112l0.015-0.053 0.023 0.015 0.015-0.052 7e-3 0.015 7e-3 -0.015c-7e-3 0.015-0.014 0.037-0.014 0.052l7e-3 0.045 0.081-0.097v0.015l0.038-0.067-0.015 0.052 0.028-0.089 0.038 0.037-0.022 0.038c0.044-0.045 0.096-0.075 0.148-0.111l-8e-3 -0.03c0.037-0.111 0.081-0.222 0.111-0.34v8e-3c0.081-0.29 0.133-0.584 0.17-0.881l-0.014 0.111c0-0.214 0.073-0.421 0.073-0.635 0-0.311-0.17-0.57-0.458-0.57s-0.458 0.458-0.599 0.658l0.015-0.015c-0.066 0.111-0.133 0.222-0.215 0.326l8e-3 -0.288c8e-3 -0.185-0.074-0.356-0.178-0.503l-0.118-0.023c-0.14 0.052-0.237 0.163-0.333 0.274l7e-3 -0.104c0-0.088-0.014-0.177-0.022-0.266h-0.089l-0.021-0.037 0.037-0.014-0.045-0.023 0.016-0.014-0.06 0.014 0.044-0.036v7e-3l0.016-0.023-0.075 0.038-0.037-0.015-0.103 0.059-0.022 0.038-0.03 6e-3c-0.045 0.06-0.104 0.119-0.155 0.171v0.014c-0.141 0.141-0.2 0.34-0.215 0.532h0.022l0.015 0.06-0.03 0.029-0.022-7e-3c-0.058 0.096-0.17 0.111-0.162 0.243l0.022 0.082c0 0.407 0.015 0.821 0.17 1.198v-0.03l7e-3 0.037 7e-3 -7e-3 0.016 0.037-0.016-0.096 0.016 0.029v-0.022l7e-3 8e-3c0-8e-3 -7e-3 -0.015-7e-3 -0.022 0-8e-3 7e-3 -0.015 7e-3 -0.015l8e-3 0.022-0.015-0.126zm0.044 0.274c0.015 0.037 0.037 0.073 0.059 0.11v-0.021l-0.059-0.089zm1.826 0.126 7e-3 -0.022-0.014-0.126 7e-3 0.148zm-0.569-2.249-0.052-0.103c0.022 0.03 0.037 0.067 0.052 0.103zm-0.696-0.369v-0.015l0.016-7e-3h-0.022l6e-3 0.022zm0.571 0.192 7e-3 8e-3h-0.023c-7e-3 -8e-3 -0.015-8e-3 -0.022-0.015l0.038 7e-3zm0.013 0.015 0.053 0.052c-0.022-0.015-0.045-0.03-0.053-0.052zm-0.066 1.479c0-0.015 0-0.03-7e-3 -0.045 0 0.015 0 0.03 7e-3 0.045zm0.599-1.301 0.022-0.023-0.022 0.023zm-1.581 2.144c0 7e-3 0 0.014 7e-3 0.014 6e-3 0 6e-3 0-7e-3 -0.014zm0.96-1.324c8e-3 0.015 8e-3 0.037 8e-3 0.052l-8e-3 -0.052zm0.067 0.407-8e-3 0.029 8e-3 -0.029zm-0.059-7e-3c7e-3 0.014 7e-3 0.022 7e-3 0.036l-7e-3 -0.036zm0.813 0.938v0.022-0.022zm-0.156-2.218-0.014 0.03c0-8e-3 8e-3 -0.022 0.014-0.03zm-0.657-0.148 0.029 8e-3c-7e-3 0-0.022 0-0.029-8e-3zm0.014 1.509h0.015-0.015zm0.814 0.384v0.015l-7e-3 0.015 7e-3 -0.03zm0.451-0.177-7e-3 0.015 7e-3 -0.015zm-1.146-1.634 7e-3 7e-3 -7e-3 -7e-3zm0.849 2.211 9e-3 7e-3 -9e-3 -7e-3zm-0.908-2.27 6e-3 7e-3 -6e-3 -7e-3zm1.22 1.626-8e-3 7e-3 8e-3 -7e-3z" fill="#f2f2f2" stroke-linejoin="round" style="paint-order:fill;text-wrap-mode:nowrap"/>
</svg>