<?xml version="1.0" encoding="UTF-8"?>
<svg viewport="0 0 0 0" xmlns="http://www.w3.org/2000/svg">
<path transform="scale(3)" d="m0.608 40.66h0.228l0.38 0.608-0.608 0.076-0.076 0.608h-0.152l0.456 0.532-0.369-0.431 0.293 0.659-0.152 0.076 0.152 0.38 1.064 0.836c0.912 0.76 3.496 1.672 4.712 1.672l1.672 0.304h0.76l1.824-0.228-0.076-0.228 0.608-0.38c0.608 1.216 1.976 1.444 3.192 1.748l0.988-0.38-0.304-0.076c4.028-1.216 8.208-2.204 12.16-3.648h-0.304l0.684-0.38-0.988 0.228 0.304-0.228h-0.304l0.076-0.076-0.38 0.076 0.304-0.152-1.216 0.228c0.076-0.076 0.152-0.076 0.152-0.076v-0.076h-0.38l0.684-0.304-1.064 0.152c0.684-0.228 1.368-0.228 2.052-0.456l0.152 0.076 0.836-0.304 0.152 0.076s0.76-0.38 0.608-0.38c-0.304 0-0.304-0.684-0.608-0.684l-0.076-0.228h0.456l-0.076-0.304 0.304 0.152 0.076-0.152-0.608-0.532 0.076-0.152-0.912-0.608-0.38-0.152 0.456-0.532-0.456-1.216-0.76-0.608-0.228 0.152c-0.836-0.228-1.672-0.304-2.508-0.38l-0.38-0.076h-4.332l0.38-0.152c-1.14 0.076-2.584 0.38-2.584 0.38-1.216 0.38-2.508 0.076-3.724 0.38l0.076-1.52s0.228-2.888 0.38-4.332v0.532l-0.076-4.104c-0.076-0.912-0.152-1.9-0.152-2.888 0-2.888 0.304-5.852 0.304-8.74 0-3.8 0-9.12-1.672-12.616l0.152 0.228-0.76-1.9-0.076 0.456-0.608 0.456-0.38-0.456 0.38-0.456-0.608-0.228-0.293 0.124-0.239 0.18-0.038-0.123-0.19 0.047v-0.228l-0.456 0.152-0.988 1.596c-0.38 2.28-1.748 4.256-2.432 6.46l0.076 0.152c-0.228 2.432-0.836 4.864-0.836 7.296l0.304-0.076 0.304 0.988c-1.444 1.14-2.204 3.04-2.204 4.788 0 0.608 0.38 1.216 0.38 1.216 0.456 4.94 0.76 9.88 1.52 14.744-1.52 0.608-2.888 1.292-4.104 2.432zm24.32 1.52h0.076l-0.608 0.228 0.532-0.228zm-13.072-39.14 0.152 0.38-0.076-0.076-0.076-0.304zm5.417 18.699-0.028-0.056v-0.308c0-0.28 0.028-0.532 0.028-0.812 0-0.084-0.056-0.112-0.056-0.112-0.056-1.008 0.056-3.052-0.56-3.864l-0.056-0.084-0.028 0.084-0.14 0.028 0.028-0.14-0.14-0.084-0.14 0.084 0.056-0.084-0.196 0.056v-0.028c-0.364 0.336-0.644 0.756-0.812 1.204l0.028 0.028c-0.084 0.168-0.14 0.392-0.14 0.588v0.084l-0.028 0.504h0.084l0.028 0.168c-0.196 0.224-0.448 0.476-0.448 0.784 0 0.056 0.028 0.168 0.056 0.224l0.028-0.028c0.504 0.98 0.14 2.212 0.812 3.136l-0.028-0.084 0.084 0.056-0.028-0.14 0.056 0.056v-0.056l0.028 0.028c0-0.028-0.028-0.028-0.028-0.056l0.028 0.028-0.056-0.308 0.056 0.056-0.028-0.336c0.084 0.392 0.336 1.036 0.336 1.036l0.252 0.056c0.112-0.084 0.28-0.252 0.28-0.42l0.028-0.084h0.056l0.084 0.14 0.084-0.084c0.392 0 0.42-0.84 0.42-1.12v-0.14zm-1.96-8.064h-0.028c-0.14 0.14-0.14 0.42-0.14 0.616 0 0.224 0 0.42 0.056 0.644v-0.028l0.14 0.224-0.028 0.084 0.084 0.112-0.056-0.056 0.056 0.112 0.084 0.056h-0.028c0.112 0.224 0.448 0.504 0.7 0.532l0.28-0.14-0.056-0.168 0.364 0.252c0.224-0.364 0.196-0.812 0.252-1.232l-0.028-0.056-0.224 0.028v-0.364l-0.98-0.812h-0.196l0.028 0.028-0.196 0.056-0.084 0.112zm1.736 4.452v-0.084 0.084zm0-0.112c-0.028 0-0.028-0.028-0.028-0.056 0.028 0 0.028 0 0.028 0.056zm-0.224-3.724h-0.028l0.056 0.084c-0.028-0.028-0.028-0.056-0.028-0.084zm-1.4 1.092v0.056-0.056zm0.728-1.624 0.028 0.028-0.028-0.028zm8.728 1.008h0.028l-0.028-0.14-0.028 0.028v-0.084c0-0.532-0.868-0.868-1.316-0.868-1.232 0-2.38 0.868-2.856 1.848-0.028-0.756-0.504-1.428-0.504-2.212l-0.084-0.084-0.196 0.224-0.112-0.112 0.112-0.112-0.168-0.056v-0.056l-0.168 0.14 0.14-0.196 0.028-0.084-0.224 0.252v-0.028c-0.028 0-0.084 0.056-0.112 0.056v-0.028c-0.756 0.952-1.12 2.184-1.12 3.388l0.084 0.028 0.056 0.224c-0.252 0.196-0.56 0.672-0.56 1.092 0 0.084 0.028 0.196 0.056 0.28l0.028-0.028c0.364 1.204 0.168 3.444 0.756 4.396v-0.112l0.028 0.14v-0.028-0.224l0.056 0.112v-0.084l0.028 0.028 0.028-0.056-0.028-0.392 0.028 0.056v-0.28c0.168 0.336 0.14 0.728 0.196 1.092l-0.028 0.056 0.084 0.252 0.084 0.056v-0.14l0.168-0.112 0.112 0.252 0.252-0.336 0.028 0.028 0.14-0.308h0.084l0.028 0.224 0.392-0.168 0.196-0.28-0.056-0.056c0.252-0.448 0.364-2.604 0.364-2.912 0-0.42-0.056-0.84-0.056-1.26 0.504-0.672 0.84-1.316 1.148-2.1h-0.056v-0.14c0.252-0.056 0.392-0.308 0.616-0.364l0.056-0.14h-0.028c0.056-0.224 0.784-0.504 1.008-0.532l-0.028-0.056 0.084 0.056 0.14 0.42c-0.504 1.092-0.588 0.98-0.644 2.24l0.056-0.028 0.056 0.196c-0.196 0.252-0.504 0.448-0.504 0.812l0.028 0.252 0.028-0.056c0.224 1.148 0.28 2.352 0.532 3.5l0.14 0.112-0.028-0.196h0.028l-0.028-0.14 0.056 0.112-0.056-0.392 0.028 0.028v-0.084l0.056 0.196v-0.14 0.112c0 0.42 0.28 0.7 0.672 0.812l-0.056-0.112 0.084-0.112 0.112 0.056-0.084-0.14 0.056-0.084v-0.14l0.028 0.084-0.028-0.14 0.532-0.224c0.028-0.196 0.084-0.392 0.084-0.588v-0.112l-0.028 0.028c0.084-1.176 0.168-2.38 0.168-3.556 0-0.952-0.028-1.904-0.168-2.856zm-1.428 6.664c0.028 0.056 0.056 0.14 0.056 0.196v0.056l-0.056-0.252zm0.588 1.316-0.196-0.112c0.056 0.056 0.112 0.084 0.196 0.112zm0.952-6.188h0.028c0 0.028 0 0.028-0.028 0zm-2.576-0.896c-0.028 0.028-0.028 0.028-0.056 0.028l0.056-0.028zm2.52 5.096c0 0.028-0.028 0.028-0.028 0.056l0.028-0.056zm-1.316-5.852h-0.056 0.056zm0.448 7.532 0.056 0.028-0.056-0.028zm-0.616-0.056 0.028 0.084-0.028-0.084zm1.568-5.684-0.028 0.028 0.028-0.028zm-0.644 5.516c0-0.028-0.028-0.028-0.028-0.056 0 0.028 0 0.028 0.028 0.056zm7.952-1.736 0.028 0.028c-0.616-0.868-1.26-1.708-2.044-2.436l0.588-0.7v0.028c0.616-0.98 1.204-2.128 1.204-3.332 0-0.756-0.616-1.4-1.372-1.4-0.644 0-1.232 0.476-1.568 0.98 0-1.092-0.084-2.156-0.14-3.248l-0.028 0.056 0.028-0.056c0-0.868-0.112-2.772-0.616-3.472l0.056-0.056-0.112-0.168-0.196 0.476-0.168-0.252 0.112-0.196-0.196-0.084 0.028-0.084-0.224 0.252 0.084-0.28-0.14 0.224-0.028-0.084-0.14 0.084c-0.756 1.96-1.372 4.004-1.372 6.104l0.112-0.056 0.084 0.392c-0.476 0.504-0.756 1.204-0.756 1.876l0.056 0.532 0.056-0.084c0.224 2.604-0.14 5.264 0.532 7.812v-0.168l0.028 0.224 0.028-0.056 0.056 0.28-0.056-0.672 0.056 0.224v-0.196l0.028 0.056v-0.252l0.056 0.196v-0.756 0.056-0.196l0.084 0.42-0.056-1.008c0.028 0.56 0.112 2.576 0.42 2.968l-0.028-0.112 0.112-0.252 0.084 0.14v-0.168l0.028 0.056-0.056-0.168h0.084v0.252l0.084-0.056h0.028c0 0.028-0.056 0.056-0.056 0.168l0.056 0.084c0.112-0.168 0.252-0.392 0.252-0.588l0.056 0.084 0.084-0.392v0.252l0.056-0.448h0.112l0.112 0.14-0.056 0.224 0.532-0.336 0.112-0.364-0.028 0.028 0.056-0.448 0.056-0.056c0.056-0.7 0.252-1.4 0.28-2.1l-0.028 0.084 0.084-0.756 0.196 0.224 0.028-0.056 0.168 0.056c-0.028 0.14-0.084 0.28-0.084 0.42s0.112 0.336 0.14 0.476c0.784 0.308 1.736 1.736 2.268 2.408l-0.084-0.168 0.084 0.056-0.028-0.056h0.028l-0.028-0.084 0.056 0.056-0.14-0.224v-0.084c0.168 0.28 0.336 0.588 0.56 0.812l0.084-0.224 0.168 0.14 0.224-0.476 0.028 0.112v-0.196l0.168 0.056 0.336-0.392-0.028-0.084c-0.14-0.7-0.42-1.344-0.672-2.016zm-2.856-5.208v-0.028c0.336-0.392 0.616-0.868 1.036-1.204l-0.028-0.028 0.112-0.112h0.084l0.084 0.14s-0.084 0.196-0.084 0.308c0 0.756-0.756 2.548-1.288 3.08l-0.336-0.224v-0.756c0-0.196 0.028-0.42 0.028-0.616l0.392-0.56zm-2.968 8.68c0.056 0.28 0.112 0.56 0.28 0.784v-0.14c-0.112-0.252-0.196-0.42-0.28-0.644zm2.548-7.448-0.028 0.504c0-0.168 0-0.336 0.028-0.504zm2.324 6.02c0.084 0.112 0.168 0.224 0.224 0.336l-0.224-0.336zm-2.38-11.76c0-0.028-0.028-0.056-0.028-0.084s0.028-0.056 0.028-0.084v0.168zm-1.344 13.188v-0.252c0 0.056-0.028 0.084-0.028 0.14 0 0.028 0.028 0.084 0.028 0.112zm4.2-4.144 0.084 0.112-0.084-0.112zm0.14-4.872-0.14 0.224c0.084-0.056 0.112-0.196 0.14-0.224zm-5.096 9.352 0.028 0.084-0.028-0.084zm5.096-0.616v-0.056h-0.084c0.028 0.028 0.056 0.028 0.084 0.056zm-3.248-2.856c0 0.056 0 0.112-0.028 0.168l0.028-0.168zm3.276-5.992-0.028 0.112 0.028-0.112zm-3.584 8.092v0.056-0.056zm3.5-7.756-0.028 0.084 0.028-0.084zm-2.38 2.352c0.028 0 0.028-0.028 0.056-0.028 0 0.028 0 0.028-0.056 0.028zm3.108 3.696-0.028 0.028 0.028-0.028zm-1.064 2.1-0.028-0.056c0 0.028 0 0.028 0.028 0.056zm-10.968 7.56c0.728-0.308 1.092-1.176 1.092-1.176 0.168-0.252-0.224-0.896-0.224-0.896l-0.252-0.028-0.364 0.252 0.028-1.204c0.028-1.344-0.252-3.164-1.96-3.164-2.548 0-2.324 2.156-2.884 2.632h-0.056c-0.504 0.588-0.812 1.26-1.064 1.988l0.056-0.112c-0.056 0.924-0.252 1.82-0.252 2.744 0 1.568 1.092 2.912 2.716 2.912 0.7 0 1.372-0.336 1.82-0.896l-0.336 0.196-0.056 0.028 0.028-0.028-0.252 0.14 0.14-0.112c-0.252 0.168-0.504 0.308-0.812 0.364l0.056-0.056-0.252 0.056 0.084-0.028-0.476 0.028c1.064-0.364 1.932-0.952 2.66-1.848h-0.028c0.308-0.56 0.476-1.176 0.588-1.792zm-3.136 2.268-0.28-0.308 0.084 0.056-0.084-0.084c-0.028-0.112-0.084-0.196-0.084-0.308v-0.448c0-0.056 0.028-0.14 0.028-0.196v0.14c0.028-0.364 0.168-1.68 0.28-1.932 0 0.336 0.392 0.616 0.644 0.812l-0.084-0.14c0.252 0.168 0.56 0.28 0.84 0.392v0.084c0 0.588-0.196 1.764-0.924 1.876l-0.056 0.056h-0.364zm1.456-6.832c0.28 0 0.616 0.868 0.616 1.12 0 0.532-0.252 0.896-0.252 1.4 0 0.084 0 0.168 0.028 0.252-0.112 0-0.224 0.14-0.252 0.252-0.28-0.644-0.532-1.316-0.7-2.016 0.112-0.252 0.364-0.84 0.56-1.008zm-0.476 6.664 0.168-0.252v0.028l0.028-0.084-0.028 0.168 0.056-0.056-0.224 0.308-0.112-0.028 0.112-0.084zm-1.456 1.512 0.392 0.028-0.392-0.028zm2.632-1.232-0.112 0.14 0.084-0.112 0.028-0.028zm-0.28 0.504-0.084 0.112c0.056-0.028 0.084-0.056 0.084-0.112zm-0.448-7.476-0.056-0.028 0.056 0.028zm-1.596 4.284c0 0.028 0 0.084-0.028 0.112l0.028-0.112zm2.912 1.736-0.028 0.084 0.028-0.084zm0.616-4.34h0.028-0.028zm-2.8 6.468c-0.028 0.028-0.056 0.028-0.084 0.028l0.084-0.028zm-0.672-1.4c0-0.028-0.028-0.028-0.028-0.056l0.028 0.056zm1.652 1.036c-0.028 0.028-0.056 0.028-0.084 0.056l0.084-0.056zm-1.708-1.12-0.028-0.028 0.028 0.028zm0.644 1.512c-0.028 0.028-0.056 0.028-0.084 0.028l0.084-0.028zm0.448-1.484c0-0.028 0-0.028 0.028-0.056l-0.028 0.056zm8.59-2.1c0.728-0.308 1.204-0.924 1.54-1.624l-0.924-0.476-0.364 0.252 0.028-1.204c0.028-1.344-0.252-3.164-1.96-3.164-2.548 0-2.324 2.156-2.884 2.632h-0.056c-0.504 0.588-0.812 1.26-1.064 1.988 0 0-0.196 1.708-0.196 2.632 0 1.568 1.092 2.912 2.716 2.912 0.7 0 1.372-0.336 1.82-0.896l-0.336 0.196-0.056 0.028 0.028-0.028-0.252 0.14 0.14-0.112c-0.252 0.168-0.504 0.308-0.812 0.364l0.056-0.056-0.252 0.056 0.084-0.028-0.476 0.028c1.064-0.364 1.932-0.952 2.66-1.848h-0.028c0.308-0.56 0.476-1.176 0.588-1.792zm-3.136 2.268-0.28-0.308 0.084 0.056-0.084-0.084c-0.028-0.112-0.084-0.196-0.084-0.308v-0.448c0-0.056 0.028-0.14 0.028-0.196v0.14c0.028-0.364 0.168-1.68 0.28-1.932 0 0.336 0.392 0.616 0.644 0.812l-0.084-0.14c0.252 0.168 0.56 0.28 0.84 0.392v0.084c0 0.588-0.196 1.764-0.924 1.876l-0.056 0.056h-0.364zm1.456-6.832c0.28 0 0.616 0.868 0.616 1.12 0 0.532-0.252 0.896-0.252 1.4 0 0.084 0 0.168 0.028 0.252-0.112 0-0.224 0.14-0.252 0.252-0.28-0.644-0.532-1.316-0.7-2.016 0.112-0.252 0.364-0.84 0.56-1.008zm-0.476 6.664 0.168-0.252v0.028l0.028-0.084-0.028 0.168 0.056-0.056-0.224 0.308-0.112-0.028 0.112-0.084zm-1.456 1.512 0.392 0.028-0.392-0.028zm2.632-1.232-0.112 0.14 0.084-0.112 0.028-0.028zm-0.28 0.504-0.084 0.112c0.056-0.028 0.084-0.056 0.084-0.112zm-0.448-7.476-0.056-0.028 0.056 0.028zm-0.336 1.596v0.056c-0.028-0.028-0.028-0.028 0-0.056zm-1.26 2.688c0 0.028 0 0.084-0.028 0.112l0.028-0.112zm1.288-2.52c-0.028-0.028-0.028-0.056-0.028-0.084 0.028 0.028 0.028 0.056 0.028 0.084zm1.624 4.256-0.028 0.084 0.028-0.084zm0.616-4.34h0.028-0.028zm-2.8 6.468c-0.028 0.028-0.056 0.028-0.084 0.028l0.084-0.028zm-0.672-1.4c0-0.028-0.028-0.028-0.028-0.056l0.028 0.056zm1.652 1.036c-0.028 0.028-0.056 0.028-0.084 0.056l0.084-0.056zm-1.708-1.12-0.028-0.028 0.028 0.028zm0.644 1.512c-0.028 0.028-0.056 0.028-0.084 0.028l0.084-0.028zm0.448-1.484c0-0.028 0-0.028 0.028-0.056l-0.028 0.056zm3.559 0.28 0.14 0.224-0.084-0.56c0.084 0.308 0.112 0.616 0.168 0.924l-0.028 0.056 0.112 0.308-0.028 0.028 0.168 0.308 0.028-0.168 0.084-0.028 0.056 0.056v-0.084l0.028 0.028-0.028-0.112 0.028 0.14 0.14 0.112 0.252-0.336 0.028 0.028 0.084-0.196v0.14l0.056-0.252h0.084l0.084 0.168 0.392-0.196h0.084l0.112-0.224-0.056-0.056c0.14-0.252 0.084-0.532 0.168-0.812l0.056-0.168-0.028 0.028v-0.504l0.056 0.028c0-0.28 0.028-0.588 0.112-0.868v0.112c0.028-0.392 0.056-0.756 0.056-1.148l-0.028 0.308c0-0.896 0.112-1.82 0.728-2.52l-0.056-0.028 0.112-0.196c0.28-0.084 0.56-0.28 0.728-0.504 0.14 0.42 0.168 0.84 0.168 1.288v0.644c0 0.448 0.028 0.896 0.112 1.316v-0.112l0.028 0.168v-0.056l0.028 0.168-0.028-0.392 0.028 0.112v-0.224l0.028 0.112-0.028-0.448 0.028 0.028v-0.112c0.056 0.476 0.028 0.924 0.112 1.4l0.056-0.112 0.112 0.168 0.084-0.224v0.028l0.028-0.168 0.028 0.028 0.728-0.7 0.196-0.224 0.14-0.224c0.168-0.168 0.28-0.392 0.392-0.588l-0.028-0.028c0.168-0.196 0.392-0.364 0.616-0.504l0.672-0.56-0.028 0.252 0.056-0.14c-0.196 1.792-0.392 3.584-0.392 5.376l0.028 0.224 0.028-0.056v0.196l0.056-0.448v0.14l0.084-0.224v0.112l0.056-0.532 0.028 0.084 0.028-0.168v0.308l0.056-0.224c-0.028 0.392-0.168 0.784-0.168 1.204 0 0.14 0.028 0.28 0.056 0.42l0.056-0.196 0.084 0.056 0.056-0.196 0.028 0.056 0.028-0.056c-0.028 0.056-0.056 0.14-0.056 0.196l0.028 0.168 0.308-0.364v0.056l0.14-0.252-0.056 0.196 0.112-0.336 0.14 0.14-0.084 0.14c0.168-0.168 0.364-0.28 0.56-0.42l-0.028-0.112c0.14-0.42 0.308-0.84 0.42-1.288v0.028c0.308-1.092 0.504-2.212 0.644-3.332l-0.056 0.42c0-0.812 0.28-1.596 0.28-2.408 0-1.176-0.644-2.156-1.736-2.156s-1.736 1.736-2.268 2.492l0.056-0.056c-0.252 0.42-0.504 0.84-0.812 1.232l0.028-1.092c0.028-0.7-0.28-1.344-0.672-1.904l-0.448-0.084c-0.532 0.196-0.896 0.616-1.26 1.036l0.028-0.392c0-0.336-0.056-0.672-0.084-1.008h-0.336l-0.084-0.14 0.14-0.056-0.168-0.084 0.056-0.056-0.224 0.056 0.168-0.14v0.028l0.056-0.084-0.28 0.14-0.14-0.056-0.392 0.224-0.084 0.14-0.112 0.028c-0.168 0.224-0.392 0.448-0.588 0.644v0.056c-0.532 0.532-0.756 1.288-0.812 2.016h0.084l0.056 0.224-0.112 0.112-0.084-0.028c-0.224 0.364-0.644 0.42-0.616 0.924l0.084 0.308c0 1.54 0.056 3.108 0.644 4.536v-0.112l0.028 0.14 0.028-0.028 0.056 0.14-0.056-0.364 0.056 0.112v-0.084l0.028 0.028c0-0.028-0.028-0.056-0.028-0.084s0.028-0.056 0.028-0.056l0.028 0.084-0.056-0.476zm0.168 1.036c0.056 0.14 0.14 0.28 0.224 0.42v-0.084l-0.224-0.336zm6.916 0.476 0.028-0.084-0.056-0.476 0.028 0.56zm-2.156-8.512-0.196-0.392c0.084 0.112 0.14 0.252 0.196 0.392zm-2.632-1.4v-0.056l0.056-0.028h-0.084l0.028 0.084zm2.156 0.728 0.028 0.028h-0.084c-0.028-0.028-0.056-0.028-0.084-0.056l0.14 0.028zm0.056 0.056 0.196 0.196c-0.084-0.056-0.168-0.112-0.196-0.196zm-0.252 5.6c0-0.056 0-0.112-0.028-0.168 0 0.056 0 0.112 0.028 0.168zm2.268-4.928 0.084-0.084-0.084 0.084zm-5.992 8.12c0 0.028 0 0.056 0.028 0.056s0.028 0-0.028-0.056zm3.64-5.012c0.028 0.056 0.028 0.14 0.028 0.196l-0.028-0.196zm0.252 1.54-0.028 0.112 0.028-0.112zm-0.224-0.028c0.028 0.056 0.028 0.084 0.028 0.14l-0.028-0.14zm3.08 3.556v0.084-0.084zm-0.588-8.4-0.056 0.112c0-0.028 0.028-0.084 0.056-0.112zm-2.492-0.56 0.112 0.028c-0.028 0-0.084 0-0.112-0.028zm0.056 5.712h0.056-0.056zm3.08 1.456v0.056l-0.028 0.056 0.028-0.112zm1.708-0.672-0.028 0.056 0.028-0.056zm-4.34-6.188 0.028 0.028-0.028-0.028zm3.22 8.372 0.028 0.028-0.028-0.028zm-3.444-8.596 0.028 0.028-0.028-0.028zm4.62 6.16-0.028 0.028 0.028-0.028z" fill="#6cc" style="text-wrap-mode:nowrap"/>
</svg>